<?xml version="1.0" encoding="UTF-8" standalone="yes"?>
<svg fill="none" baseProfile="tiny-ps" viewBox="0 0 229 229" version="1.2" xmlns="http://www.w3.org/2000/svg">
  <title>bimi-svg-tiny-12-ps</title>
  <path d="M229 0H0v229h229V0Z" fill="#fff"/>
  <g fill-rule="evenodd">
    <path d="M162 174h-6l-22-9-14-5s-13 4-22 5c-5 0-11 3-15 5-31 0-56 2-56 4 0 3 26 5 58 5l23-1c1 3 25 4 54 4s53-2 53-4-24-4-53-4z" fill="#e8e8e8"/>
    <path d="M126 72a58 58 0 0 1-37 102c-32 0-57-26-57-58a57 57 0 0 1 71-56c2 0 1 3 2 3 4 1 6 3 7 5l2 3 4 1 2-1 4 1h2z" fill="#fb8f13"/>
    <path d="M69 97c-1 0-3 0-4 2s-2 3-1 4 2 1 2-1l1-2c1 0 3 0 2 1l-1 2c-1 2 1 2-1 2l-2 1-3-1v-2c-1 0-1-3-2 0v3c1 1 0 2 2 1h2l-1 2h-3c-1-1 0-2-2-3s-1-2-1 0-2-1-1 2 0 3 2 3h1l2 1 2 1h1l2-1c0 1 0 2 2 0s3-2 2-3 0-2-2-1-1 4-1 2v-2c1 0 1 2 1 0s1-2 3-1h3c1-1 2-2-1-2l-3-1 1-2c0-3 2-2 0-3h-1c0-1 1-3-1-2z" fill="#ffed9d"/>
    <path d="M76 108v5l-2 1-1 2v1l2-1 1-1 1-2c1-1 0 1 0 0v-4l-1-1zm-19 10-2-1h-2l-1-1-2-2h-1l1 2 1 1 1 1h3l2 1v-1z" fill="#fe7400"/>
    <path d="m73 94 1 1s0-2 2-1 3 1 2 2 1 1 1 2l-2 1c-1 0 0-2-2-1s-1 0 0 1 2-1 0 2-3 1-1 2 3 0 3-1l2-2c1-1 1 1 1-1l1-3-1-2-2-1c-3-1-3-2-5 1zm-14 20c2 0 2-1 3 1s-1 3-2 2l-1-3zm24-18v2l-1 2-1 2v1l2-1c1-1 1 1 1-2l-1-4zm-4 8-1 3v1l2-1-1-3zm-4 6s-2 0-3 2 1 2-1 2l-3 1c-2-1-1 1 0 1h3l2-1c0-1 0-3 2-5zm-9 9s1-2 2-1l1 2-3-1zm-2-4v2l2-1v-2l-2 1zm-10-1 1 2c0 2 0 2-1 1l-2-1s-2 0-1-1l3-1zm29-8-1 2v1l1-3zm-8 15c-1 0 1-2 2-1s2 2 0 2l-2-1zm-22-15v4h-1l1-4zm5 12 1 1 1 1h-1c-1 0-1 1-2-1s1-1 1-1zm23-7-1 2v1l1-3zm6-6c-1-1-2 1-1 2h1v-2zm-4 10-1 1 1-1zm8-20 1 2-1-2zm-3 15v2-2zm-15 15c-1 0-4 2-2 2s2-2 2-2zm12-5c0 1 2 1 2-1s-1 0-2 1zm8-13-1 2c1 0 2 0 1-1v-1z" fill="#ffed9d"/>
    <path d="M90 89h1l1-1-2 1zm4-7v1-1c-1 0-1 0 0 0zm5 1 1 1v-1h-1zm5-7 1 1v-1h-1zm-1 5h1v-1l-1 1zm5-2 1 1v-1h-1z" fill="#ffec9c"/>
    <path d="m101 87-1 2v2c1 1 2 0 1-1v-3zm-39 37 1 1-1-1zm2-29v1l2-2-2 1z" fill="#ffed9d"/>
    <path d="m82 90 1 1 2-1h-3z" fill="#ffec9c"/>
    <path d="M69 90h3c0-1 0-2-1-1l-2 1zm-17 32 2 1h1c-1-1-2-2-3-1zm29 3 1-2v-1c-1 1-2 2-1 3zm-2-37h-4 4zM56 99l2-1 1-1c0 1-1 4-3 2z" fill="#ffed9d"/>
    <path d="m36 93 18-13c10-5 35-18 52-18L67 86c-20 12-24 26-35 25l4-18z" fill="#de8114"/>
    <path d="m109 87 3 5c1 3 8 5 10 9s39 34 45 36 21 1 23 2 16 12 20 10a13 13 0 0 1 1 0 59 59 0 0 1-111-31c0-11 3-22 9-31z" fill="#fd9500"/>
    <path d="M168 169zm0 1zm0-1v1h1-1v1h-1 1-1v-1h1v-1zm-6 1zm0-1v2h-1v-2h1zm1 4zm0-1h1v1h-2v-1h1zm10-1zm0-1h1v1h-2v-1h1zm-3 4zm1 0zm0 0zm0 0v1h-1v-1h1zm-13-6v1h-1v-1h1zm-4 5zm-1 1zm1 0zm0-1v1h-1v-1h1zm-3-4h1v1h-2v-1h1zm-1-4zm-1 1zm0 0h1-1zm1 0zm0-1v1h-1v-1h1zm-3 3zm0 0zm0 0zm1 0v1h-1v-2l1 1zm-2-4zm-1 0zm0 0zm0-1h1v1h-1v-1zm-4 3zm0 0zm1-1v2h-1v-2h1zm-2-4v1h-1v-1h1zm-6 3zm1 0zm-1 0h1v1h-1v-1zm0 4zm0 1zm0-1h1v1h-2v-1h1zm-5-4zm0 0zm0 0zm0 0zm0 0h1v1h-2v-1h1zm4-3zm0 0zm0 0zm0 0zm0-1v2h-1v-2h1zm0-3zm0 1v-1zm0-1h1v1h-2v-1h1zm-8 6h1v1h-1v-1zm54 9v1h1v1h-1v-2zm1-2h1v1h-1v-1zm4-2zm0 0zm0-1h1v1h-1v1-1h-1 1v-1zm4 1zm0 0h1v1h-2 1v-1zm1-2zm1 1zm0-1v1h-1v-1h1zm5-2v1h-1v-1h1zm-70-11zm1 0zm0-1v1h-1v1-2h1zm-1 4v1h-1v-1h1zm-4 2zm0 1zm0-1h1v1h-2v-1h1zm-2-4zm0 1zm0 0zm0 0zm0-1h1v1h-1v-1zm3-2zm0-1h1v1h-2v-1h1zm-7-1zm0-1h1v1h-2v-1h1zm4-5v1h1-1v1h-1v-2h1zm-5-2h1-1v1-1h-1 1zm7 7zm0 0zm0-1 1 1h-1v1-1h-1 1-1v-1h1zm-10-11zm0 0zm0-1h1v2h-1v-2zm1 7zm0-1h1v1h-2v-1h1zm5-1h1v1h-1v1-1h-1 1v-1zm-2 5zm0-1h1v2h-1v-1h-1v-1h1zm14 9zm0 0zm0 0zm0 0zm0 0zm0 0h1v1h-2v-1h1zm1 4zm0 0zm-1 0zm1 0v1h-1v-1h1zm9 6v1h-1v-1h1zm2 7h1v1h-2v-1h1zm-19-26h1v1h-1v-1zm-3 4v1h-1v-1h1zm-2 5h-1 1zm-7-21v1-1h-1 1zm5 6zm0 0v1-1zm11 16h1v1h-1v-1zm-4 1zm1 0h-1 1zm14 6zm-1 0h1v1h-1v-1zm2 5zm0-1h1v1h-1v-1zm-1-6zm8 11v1h-1v-1h1zm-3-1h-1v-1h1v1zm7 0v1h-1v-1h1zm-42-42h1-1zm-1 7zm0-1h1v1h-1v-1zm-2-10v1-1zm1-3h-1 1zm-2 8zm0 0h1v1h-1v-1zm5 11v1h1-1v-1zm71 27h1-1zm6 4zm0 0v1h-1v-1h1zm-20-3h1-1zm-11-2h1v1h-1v-1zm5 8zm1 0zm0 0h-1v1-1h1zm-10 0zm0 0h1-1v1-1zm7-3v1h-1v-1h1zm-11 4zm19 1h1-1zm-6 0h1v1h-1v-1zm16-3v1h1-1v-1zm2-5h1-1v1-1 1h-1v-1h1zm-51-8h1v1h-1v-1zm6 2v1-1zm0 4v1h-1v-1h1zm4-8h1-1zm-33-45zm0-1v1h-1v-1h1zm-1 5h-1v1-1h1zm1 0zm1 1zm0-1v1h-1v-1h1zm0 15h1v1h-1v-1zm2-8zm0 0zm0 0zm0 1zm0-1v1-1zm1 7zm0 0zm0 0zm-1 7zm0 0zm4 8zm0-1v1-1zm1 4zm0 0zm0 0zm0 0zm0 0zm0 0h1-1zm1-2zm0 0zm1 7h1-1zm4 4h1-1zm13 11zm0 0v1-1h-1 1zm6 2zm0 0zm0 0zm0 0zm0 0h1-1zm0 0h1-1zm-3-17v1-1zm-7-4zm0-1v1h1-1v-1zm26 27h1v1h-1v-1zm10-10h1v1h-1v-1zm38-6h1-1zm-3 2h1v1h-1v-1zm-5 6h1-1zm0-4zm0 0zm0 0zm0 0v1-1zm-5 2zm0 0h1v1h-1v-1z" fill="#f57a07"/>
    <path d="M165 71s-29-8-46 6c-18 13-17 27-14 39s16 29 35 41 39 11 57 3 23-23 20-42-22-41-52-47z" fill="#ffc54b"/>
    <path d="M110 87h1a2 2 0 0 0-1 0zm-1 2zm-4 13 2-7v1l-1 1v1l-1 3v1zm106 3zm-103 15v-1 1zm2 5 1 1-1-1zm104 13c-2 6-4 7-4 7l4-7zm-76-68 1 1h2l1-1h2l4 1 3-1 3 1h1l2 1 1-1 3 1h3l3 1h3l1 1 2 1 1-1v1h2a2 2 0 0 0 0 1h3v1l1 1 1 1h2v1h3c0 2 1 2 2 2h1v1l3 1v1h2l1 1 2 2v1l2 1h1v2l1 1v1l2 1v1l1 1v1l1 1h1v1l2 1-1 2 2 1v2l2 1v1l1 2v1l1 1v2l1 1v1l1 2v4a2 2 0 0 0 0 1v3l-1 1 1 2-1 2v3c0 2-2 3-3 5l-1 2-1 2v1h-1l-4 5-1 2-3 3-2 1h-1l-1 1-2 1-1 1-1 1h-2l-3 1-1 1h-5l-2 1h-2l-2 1h-5l-3-1h-4l-1-1h-2l-6-1-1-1-3-1h-1l-1-1h-3v-1l-1-1h-3l-1-1-2-1-2-1-4-3-2-2h-1v-2l-3-3h-1v-1l-3-2-1-1-2-3-2-1-1-3-2-3-2-4-1-1-1-4-2-4-1-1 1-4-2-2v-1a1 1 0 0 0 1-1h-1v-3l1-2 1-2v-2l1-2 1-4 1-1v-1a1 1 0 0 0 1-1l3-4 1-2v-2l3-1 1-2h2l2-2v1l2-1 1-2h1l3-1h1l3-1 3-1z" fill="#fefcd7"/>
    <path d="M182 84s-2-1-5 4l-9 15 4-7 5-9s3-6-1-7-8-4-12-3c0 0-3-2-8-2s-7 1-6 4l4 11 3 11-6-14c-1-4-2-10-5-11s-8-3-12 2c0 0-12 2-8 6l23 20-23-15s-6-6-9 0c-5 7-3 6-3 6s-2 4 5 7l25 9s-25-7-29-5-5 3-2 10 2 10 6 9l25-6s-23 9-24 11 2 4 4 7 7 6 10 4l18-15-14 15s-5 3-2 6 8 7 14 9 6-4 7-12l1-11v22c1 2 5 4 9 4h8c3-1 5-2 5-4l-10-21s12 21 16 21 5-2 8-3 6-4 7-6-25-20-25-20l24 15s4 2 7-2 3-7 3-11-33-11-33-11l32 5s3-2 1-8c-2-7-3-10-5-10l-31 6 22-7s9-1 5-6-8-6-10-8c-5-5-9-5-9-5z" fill="#fda106"/>
    <path d="M170 106s-1-4 5-8l-5 8zm5 7s3-4 10-3c0 0-5 3-10 3zm1 2s4-2 10 2c0 0-6 0-10-2zm-3 4s4-1 9 4c0 0-6-1-9-4zm3 4s5 0 8 6c0 0-5-2-8-6zm-6 1s4 1 7 7c0 0-5-3-7-7zm-1 2s4 2 5 9c0 0-4-4-5-9zm-4 0s3 2 3 9c0 0-3-5-3-9zm-3 0s2 4-3 9l3-9zm2 3s2 4-1 10c0 0-1-6 1-10zm2 5s3 3 2 10c0 0-3-5-2-10zm3 2s4 2 4 9c0 0-4-4-4-9zm-8-1s3 4-1 10c0 0-1-6 1-10zm1 9s2 4-1 10c0 0-1-6 1-10zm3-6s2 4-1 10c0 0-1-6 1-10zm2 6s3 4 0 10c0 0-2-5 0-10z" fill="#fbd104"/>
    <path d="M169 150s3 2 1 8l-1-8zm-5-1s2 3-1 8l1-8zm-12-2s3 2 0 8v-8zm-5-3s1 3-4 6c0 0 1-4 4-6z" fill="#fbf204"/>
    <path d="M169 143s4 2 3 9c0 0-3-5-3-9z" fill="#fbd104"/>
    <path d="M173 147s4 2 4 9l-4-9z" fill="#fbf204"/>
    <path d="M174 131s4 0 6 7c0 0-4-3-6-7zm11 7s5-2 9 4c0 0-5-1-9-4z" fill="#fbd104"/>
    <path d="M188 141s5 1 8 7c0 0-5-3-8-7zm0 3s3 2 3 8c0 0-3-4-3-8z" fill="#fbf204"/>
    <path d="M178 131s5 0 8 6c0 0-5-2-8-6zm3 4s4 1 6 8c0 0-4-3-6-8zm-6 0s4 2 4 9c0 0-3-4-4-9zm4 5s4 2 4 9l-4-9zm4 2s4 2 4 9l-4-9zm-2-22s5-1 10 4c0 0-6-1-10-4zm11 12s5 0 8 7c0 0-5-3-8-7z" fill="#fbd104"/>
    <path d="M194 130s4 0 8 5c0 0-5-1-8-5z" fill="#fbf204"/>
    <path d="M183 124s4-1 9 4c0 0-6-1-9-4zm8-1s4-2 10 3l-10-3z" fill="#fbd104"/>
    <path d="M198 127s5-1 9 5c0 0-6-2-9-5z" fill="#fbf204"/>
    <path d="M191 126s4-1 9 4c0 0-6-1-9-4zm-6 1s4 0 7 7c0 0-5-3-7-7zm-2-14s4-3 10 0c0 0-5 2-10 0zm3-3s3-4 10-2l-10 2z" fill="#fbd104"/>
    <path d="M194 111s4-3 10 0c0 0-5 2-10 0z" fill="#fbf204"/>
    <path d="M187 116s4-2 10 2l-10-2z" fill="#fbd104"/>
    <path d="M195 114s4-2 10 2c0 0-6 0-10-2z" fill="#fbf204"/>
    <path d="M175 103s1-4 8-6c0 0-4 5-8 6zm11-6s-1-4 7-5l-7 5zm12 11s0-4 8-2l-8 2zm1 9s4-1 8 3c0 0-6 0-8-3z" fill="#fbd104"/>
    <path d="M182 96s0-4 6-6c0 0-2 4-6 6z" fill="#fbf204"/>
    <path d="M172 107s3-4 10-4c0 0-5 4-10 4zm5-9s-1-5 6-8c0 0-2 5-6 8zm-14 6s-1-4 5-9c0 0-1 6-5 9zm-3-1s-3-3-1-10c0 0 2 5 1 10zm-4 0s-4-2-4-9c0 0 3 4 4 9zm-3 0s-5 0-8-7c0 0 5 3 8 7zm-6 13s-3 3-10 1c0 0 5-2 10-1zm-2-3s-4 3-10-2c0 0 6 0 10 2zm8 8s-1 4-8 6c0 0 3-4 8-6zm4 4s2 4-2 10c0 0 0-6 2-10zm-2 1s0 5-6 8c0 0 2-5 6-8zm-2 7s0 5-6 9c0 0 2-6 6-9zm-1 7s1 4-5 9c0 0 2-6 5-9zm-6 1s-1 4-7 5c0 0 3-4 7-5zm10-5s2 4-2 10c0 0-1-5 2-10zm-8-1s-1 4-8 6c0 0 3-5 8-6zm1-15s-2 4-9 4c0 0 4-4 9-4zm-5 5s-2 4-9 4c0 0 4-4 9-4z" fill="#fbd104"/>
    <path d="M138 131s-1 4-9 5c0 0 4-4 9-5zm-5-1s-2 3-10 3c0 0 5-3 10-3z" fill="#fbf104"/>
    <path d="M146 129s-1 4-9 5c0 0 4-4 9-5zm-9-5s-2 4-9 4c0 0 5-4 9-4zm-3-13s-4 2-10-2l10 2zm4 3s-3 3-10-1c0 0 6-1 10 1zm0 5s-3 3-10 2c0 0 5-3 10-2z" fill="#fbd104"/>
    <path d="M125 112s-4 2-10-1c0 0 5-1 10 1zm2 8s-3 4-10 3c0 0 5-3 10-3z" fill="#fbf104"/>
    <path d="M133 116s-3 4-11 1c0 0 6-2 11-1zm13-8s-4 2-9-2c0 0 5 0 9 2zm2-1s-4 0-7-6l7 6zm-8-5s-4 0-7-6c0 0 5 2 7 6zm-6 2s-3 2-9-2c0 0 5 0 9 2zm3 0s-3 0-7-5c0 0 5 1 7 5z" fill="#fbd104"/>
    <path d="M130 96s-3 0-6-6c0 0 4 2 6 6zm-2 4s-3 2-8-2c0 0 5 0 8 2z" fill="#fbf104"/>
    <path d="M151 98s-4-1-5-8c0 0 4 4 5 8zm-1-6s-4-2-2-10l2 10zm-6 3s-4 1-9-6c0 0 6 2 9 6zm1-2s-5-1-6-8c0 0 4 3 6 8z" fill="#fbd104"/>
    <path d="M145 88s-4-2-3-9c0 0 3 5 3 9zm-7 0s-4 1-8-5c0 0 5 1 8 5z" fill="#fbf104"/>
    <path d="M163 98s-2-3 2-10c0 0 0 6-2 10z" fill="#fbd104"/>
    <path d="M167 88s-1-4 4-7c0 0-1 4-4 7z" fill="#fbf104"/>
    <path d="M166 95s-1-4 6-8c0 0-2 5-6 8zm-5-2s-3-3-1-11c0 0 2 6 1 11z" fill="#fbd104"/>
    <path d="M158 89s-4-3-3-10c0 0 3 5 3 10z" fill="#fbf104"/>
    <path d="M163 89s-2-4 3-10c0 0 0 6-3 10zm18 13s1-4 9-5c0 0-4 4-9 5z" fill="#fbd104"/>
    <path d="M186 102s3-4 10-2c0 0-5 3-10 2z" fill="#fbf104"/>
    <path d="m102 62 1-1s2-1-3-3-21-9-39-4-28 13-37 27c-7 13-6 17-9 22s-4 11-3 20c0 0-1-8 8-18s20-20 30-26 36-20 52-17z" fill="#407c11"/>
    <path d="M11 123s2-9 6-12 38-18 47-25 30-19 40-23c6-3 12-2 13 2l1-1c0-1-2-4-6-4l-9 1s-19-2-41 10c-20 10-49 34-51 52z" fill="#265a0f"/>
    <path d="m98 61-2-3-1-1 1 1 5 3h-3zm3 0-2-2h-1 1l4 3-2-1zm-9 1c-5 0-10 0-17 3-7 2-15 6-24 12-4-3-17-7-17-7 7 0 17 4 20 5l-17-7c6 0 17 4 20 5l-17-7c6 0 17 4 20 6-5-4-18-8-18-8 7 0 17 4 21 6l-18-8c7 0 18 5 21 6l-18-7c7 0 17 4 21 5l-17-7c6 0 13 3 18 5l-14-7c6 1 15 5 19 7-5-4-16-8-16-8 6 0 15 5 19 7l-15-9c6 1 15 6 18 8-4-4-13-9-13-9 6 1 14 6 17 8l-13-8c6 1 12 5 16 7l-10-7c8 2 12 6 13 7l-5-6 8 6-1-3-1-1 1 1c3 1 4 3 5 4h-6v1zm-77 48v1l-3-1 4-1h-4l5-2h-4l6-2h-5l7-2h-6l8-2-7-1 9-1-8-1 10-2-9-1 11-1-10-2h11l-9-2h13l-12-3 13 1-13-3c7-1 13 1 16 2-5-4-14-5-14-5l16 2c-5-3-14-5-14-5 7 0 13 2 16 3-5-3-14-5-14-5 6 0 14 2 17 4l-15-7c6 0 15 4 18 5-4-3-16-7-16-7 7 0 16 4 19 5a155 155 0 0 0-27 24l-3 2v1a100 100 0 0 0-6 6z" fill="#4c9c06"/>
    <path d="M98 61h1l-1 4v-4zm-2 0h1v5l-1-5zm-2 0h2l-2 6v-6zm-1 0-1 7v-7h1zm-2 0-1 9v-9h1zm-2 0-1 10V61h1zm-2 1-1 10-1-10h2zm-2 0-1 12-1-11-2 11V63a68 68 0 0 1 4-1zm-4 1-2 14V64l2-1zm-2 1-2 14V64h2zm-2 0-2 14V65l2-1zm-3 1-2 14V66l2-1zm-2 1-2 15V67l2-1zm-2 1-2 15s-2-8-1-14l3-1zm-3 1-2 16V69l2-1zm-2 1-2 16s-2-8 0-15l2-1zm-3 2-2 15V72l2-1zm-2 1-2 16s-2-9 0-15l2-1zm-2 1-3 16V74l3-1zm-3 2-2 16s-2-9 0-15l2-1zm-3 1-2 16V78l2-2zm-2 2-2 16V79l2-1zm-2 1-3 16V83l-2 13V83l5-4zm-5 4-2 14V85l-2 13V87l-2 12s-1-6 1-12a196 196 0 0 1 5-4zm-5 4-2 14s-2-7 0-12l2-2zm-2 2-2 12v-9l-2 10V92l4-3zm-4 3-2 11v-9l2-2zm-2 2-2 10v-8l2-2zm-2 2-2 10v-8l2-2zm-2 2-2 9v-7l2-2zm-2 2-1 8s-2-2 0-6l1-2zm-1 2c-1 1-2 3-2 7v-5l2-2zm-2 2a28 28 0 0 0-2 5s0-1 0-3l2-2zm-2 2-1 4v-2a69 69 0 0 1 1-2zm-2 2v2l-1-1a54 54 0 0 1 1-1zm84-47-2 3v-3h2z" fill="#417a0f"/>
    <path d="m122 60-6 6-3 4 1 1h2c1 1 2 3 2 1l1-3 2-3 2-2 2-2-3-2z" fill="#407c11"/>
    <path d="m114 71-1-1 3-4 6-6v1l-2 3-3 3-2 3-1 1zm-2-2-1 1-1-1c-1 0-2 0-1 1l1 1 1 1 1 1v1h5l-1-2v-1h-3l-1-2z" fill="#265a0f"/>
    <path d="m114 69-1 1h-1l1 2h1l2 1v1h2v-1l-1-2-2-1c-1 0 0 1 0 0l-1-1z" fill="#407c11"/>
    <path d="M158 103s4 7-9 1c0 0 9 6-2 8 0 0 8 0 0 6 0 0 13-2 6 7 0 0 6-9 6 3 0 0 3-11 8-1 0 0-3-8 6-4 0 0-9-6 0-6 0 0-9-3-2-7 0 0-10 4-5-5 0 0-5 6-8-2z" fill="#fefcd7"/>
    <g fill="#fe7400">
      <path d="M118 160s-6 6-16 9c0 0 10-1 17-7l-1-2z"/>
      <path d="M116 158s-5 6-15 9c0 0 9-1 17-7l-2-2z"/>
      <path d="M109 146s-6 6-16 9c0 0 10-1 18-7l-2-2z"/>
      <path d="M108 143s-6 6-16 9c0 0 10-1 17-7l-1-2z"/>
      <path d="M106 137s-6 6-16 9c0 0 10-1 18-7l-2-2z"/>
      <path d="M106 134s-6 6-16 9c0 0 10-1 18-7l-2-2z"/>
      <path d="M104 127s-6 6-16 9c0 0 10-1 17-7l-1-2z"/>
      <path d="M103 121s-5 6-15 9c0 0 9-1 17-7l-2-2z"/>
      <path d="M104 118s-6 6-16 9c0 0 10-1 18-7l-2-2z"/>
      <path d="M106 108s-6 6-16 9c0 0 9-1 17-7l-1-2z"/>
      <path d="M110 95s-6 6-16 9c0 0 10-1 18-7l-2-2z"/>
      <path d="M112 93s-6 6-16 9c0 0 10-1 18-7l-2-2z"/>
      <path d="M116 87s-6 6-16 9c0 0 9-1 17-7l-1-2z"/>
      <path d="M120 83s-6 6-16 9c0 0 9-1 17-7l-1-2z"/>
      <path d="M121 81s-6 6-16 9c0 0 10-1 17-7l-1-2zm-37 63v1-1zm4-6c-1 1 0 2 1 1s1-2-1-1zm-12 6c-1 1 0 2 1 1s1-2-1-1zm4-6 1 1c1 0 1-2-1-1zm16-25c-1 1 1 2 1 1s1-2-1-1zm1 35h1c0-1 0-2-1 0zm-15 8h2c1-1 0-2-2 0z"/>
      <path d="M90 78v1-1zm2-5 1 1c0-1 1-2-1-1z"/>
      <path d="m73 86-1 1c1 0 2 0 1-1z"/>
      <path d="M97 79h1-1zm3-9c-1 1 0 1 1 1l-1-1zm5-4 1 1s1-2-1-1zm4 10h1-1zm-7 12 1 1c1 0 0-2-1-1zm-6 1v1-1zm17-12v1-1zm-52 69c0 1 1 2 2 1s0-3-2-1zm-6 6c-1 1 1 2 1 1s0-2-1-1zm8 4h1c0-1 0-2-1 0zm3-15h1c1-1 0-2-1 0zm1 8 1 1c0-1 0-2-1-1zm-8-8 1 1c0-1 0-2-1-1z"/>
      <path d="m63 130 1 1s0-2-1-1zm9 0c-1 1 0 1 0 0s0-1 0 0z"/>
      <path d="M79 132h1-1zm-24 1v1-1zm32 15c0 1 1 2 2 1s0-2-2-1zm-10 4 1 1c1 0 1-2-1-1zm-25-10v1-1z"/>
      <path d="M56 126h-1 1zm-11-21h-1 1zm7-4-1 1c0 1 2 1 1-1zm-11 7h-1 1z"/>
      <path d="M40 135v1-1z"/>
      <path d="M46 111v1-1z"/>
      <path d="m36 119-1 1s2 0 1-1zm10-1h-1 1zm-7 11-1 1c0 1 2 0 1-1z"/>
      <path d="M39 124c-1-1-1 1-1 1l1-1zm32 17c-1 1 1 2 1 1s1-2-1-1zm14-13c-1 1 1 2 1 1s1-2-1-1zm8 2c-1 1 0 2 1 1s1-1-1-1zm-22 31v1h1l-1-1zm20-6-1 1 1-1zm-8 5-1 1h1v-1zm-7 6-1 1h1v-1zm1-7v1h2l-2-1zm4 8v1h1l-1-1zm8-7v1-1zm8-8v1-1zm-3 7h1-1zm9-10 1 1-1-1zm-1 8 1 1s0-2-1-1z"/>
      <path d="M91 165h1-1z"/>
      <path d="m71 158 1 1c1 0 0-2-1-1z"/>
      <path d="M63 113h4l1-1c-1 0-4-1-5 1zm3 3 1 1 1 1 1 1h3l-1-1-1-1-1-1h-3zm-11-14v2l-1 2-1 1h1l1-1 1-1 1-1 1-1h-2l-1-1zm7-5-1 2 1 1s0-2 1-1 1-1 2-1l2-1 1-1h-2l-2 1v-1l-1-1v2h-1zm11-5v4h6l-1-1-2-1h-2v-2h-1zm1 28h2l1-1 1-1v-1l-1-1v2l-3 2zm6-11h2v-1s2-1 1-2l-1-2-1-1 1 3-2 3zm7-8h1v-2l-1-2-2-1c-2-1-3 0-1 1l2 1 1 3zm-28 20h3l2 2v-1l-1-2h-3l-1 1zm-3-14-1 1c0 1-1 2 1 3l2 1h1v-1l-1-1-2-1v-2zm17 1s0 2 1 0l1-2c1-1 2-1 1-2h-1c1 1 2 2 0 2s-3 2-2 2z"/>
      <use href="#a"/>
      <use href="#b"/>
      <use href="#c"/>
      <use x="-5" y="-7" href="#a"/>
      <use x="-6" y="-13" href="#b"/>
      <use href="#d"/>
      <use href="#e"/>
      <use x="-1" y="-8" href="#d"/>
      <use href="#f"/>
      <use href="#g"/>
      <use x="-6" y="-48" href="#b"/>
      <use x="4" y="-28" href="#e"/>
      <use x="6" y="-17" href="#f"/>
      <use x="8" y="-22" href="#g"/>
      <use x="6" y="-66" href="#c"/>
      <use href="#h"/>
      <use href="#i"/>
      <use x="-15" y="-21" href="#i"/>
      <use x="9" y="-51" href="#h"/>
      <use href="#j"/>
      <use x="17" y="-10" href="#j"/>
      <use href="#k"/>
      <use x="3" y="-5" href="#k"/>
      <use href="#l"/>
      <use x="1" y="-11" href="#k"/>
      <use href="#m"/>
      <use x="1" y="6" href="#m"/>
      <use x="1" y="6" href="#l"/>
      <use href="#n"/>
      <use x="-5" y="-3" href="#n"/>
      <use href="#o"/>
      <use x="10" y="5" href="#o"/>
      <use href="#p"/>
      <use href="#q"/>
      <use x="3" y="-6" href="#q"/>
      <use x="-17" y="4" href="#q"/>
      <use x="-2" y="7" href="#p"/>
      <use x="14" y="2" href="#p"/>
      <use x="-40" y="-2" href="#q"/>
    </g>
  </g>
  <defs>
    <path d="M115 155s-6 6-16 9c0 0 10 0 17-7l-1-2z" id="a"/>
    <path d="M113 153s-6 6-16 9c0 0 10-1 18-7l-2-2z" id="b"/>
    <path d="M112 151s-6 6-16 9c0 0 9-1 17-7l-1-2z" id="c"/>
    <path d="M105 132s-6 6-16 9c0 0 10-1 17-7l-1-2z" id="d"/>
    <path d="M105 129s-6 6-16 9c0 0 10 0 17-6l-1-3z" id="e"/>
    <path d="M104 115s-6 6-16 9c0 0 10-1 18-7l-2-2z" id="f"/>
    <path d="M105 111s-6 6-16 9c0 0 10-1 18-7l-2-2z" id="g"/>
    <path d="M72 134c-1 1 0 2 1 1s0-2-1-1z" id="h"/>
    <path d="M98 97c-1 1 0 2 1 1s1-2-1-1z" id="i"/>
    <path d="M62 136c-1 0 0 1 0 0s0-1 0 0z" id="j"/>
    <path d="M47 135v1-1z" id="k"/>
    <path d="m42 122 1 1c1 0 1-1-1-1z" id="l"/>
    <path d="M56 95h-1 1z" id="m"/>
    <path d="M42 116v1-1z" id="n"/>
    <path d="M45 142h-1 1z" id="o"/>
    <path d="M99 162h1-1z" id="p"/>
    <path d="m105 166 1 1c1 0 0-2-1-1z" id="q"/>
  </defs>
</svg>