<svg xmlns="http://www.w3.org/2000/svg" fill="none" viewBox="0 0 207 132"><g clip-path="url(#a)"><path d="M151 122.8h-6.4l-21.5-9.3-14-4s-12.8 3.5-21.8 4c-5 .4-11.2 3.2-15.6 5.5-31.2 0-56 2-56 4.3 0 2.4 26.3 4.3 58.7 4.3 8.2 0 16-.1 23-.4 1 2.4 24.6 4.2 53.5 4.2 29.6 0 53.5-2 53.5-4.3 0-2.4-24-4.3-53.5-4.3Z" fill="#E8E8E8" fill-rule="evenodd" clip-rule="evenodd"/><path d="M115 21a58.2 58.2 0 0 1-37 101.7c-31.5 0-57-26-57-57.9a57.4 57.4 0 0 1 70.9-56c1.8.4 1.6 3 2.6 3.2 3.5.8 5.2 2.8 6.2 5 1 2.3.7 2.3 2.3 2.8 1.7.4 2.8 1.3 3.8 1 1-.3.6-1.1 2.3-.6 1.7.6 2.5.9 3.9 1.1.7.2 1.5 0 2.2-.3Z" fill="#FB8F13" fill-rule="evenodd" clip-rule="evenodd"/><path d="M107 109s-6 6-16 9c0 0 9.8-.8 17.4-7l-1.5-2Z" fill="#FE7400" fill-rule="evenodd" clip-rule="evenodd"/><path d="M105.5 106.6s-6 6-16 9c0 0 9.9-.9 17.5-7l-1.5-2Z" fill="#FE7400" fill-rule="evenodd" clip-rule="evenodd"/><path d="M103.8 104.4s-6 6-16 9c0 0 9.8-.8 17.4-7l-1.4-2Z" fill="#FE7400" fill-rule="evenodd" clip-rule="evenodd"/><path d="M102.2 101.9s-5.9 6-16 9c0 0 10-.8 17.5-7l-1.5-2Z" fill="#FE7400" fill-rule="evenodd" clip-rule="evenodd"/><path d="M100.6 99.5s-6 6-16 9c0 0 9.9-.8 17.5-6.9l-1.5-2Z" fill="#FE7400" fill-rule="evenodd" clip-rule="evenodd"/><path d="M99 97.2s-5.8 6-15.9 9c0 0 9.9-.9 17.5-7l-1.5-2Z" fill="#FE7400" fill-rule="evenodd" clip-rule="evenodd"/><path d="M98 94.7s-5.9 6-16 9c0 0 10-.8 17.5-7l-1.5-2Z" fill="#FE7400" fill-rule="evenodd" clip-rule="evenodd"/><path d="M96.7 91.9s-5.9 6-16 9c0 0 10-.9 17.5-7l-1.5-2Z" fill="#FE7400" fill-rule="evenodd" clip-rule="evenodd"/><path d="M96.1 88.7s-5.9 6-16 9c0 0 9.9-.8 17.5-6.9l-1.5-2Z" fill="#FE7400" fill-rule="evenodd" clip-rule="evenodd"/><path d="M95.2 86.2s-5.9 6-16 9c0 0 10-.8 17.5-6.9l-1.5-2Z" fill="#FE7400" fill-rule="evenodd" clip-rule="evenodd"/><path d="M95.3 83s-6 6.1-16 9c0 0 9.9-.7 17.5-6.8L95.3 83Z" fill="#FE7400" fill-rule="evenodd" clip-rule="evenodd"/><path d="M94 81s-6 6-16 9c0 0 9.9-.8 17.5-6.9l-1.5-2Z" fill="#FE7400" fill-rule="evenodd" clip-rule="evenodd"/><path d="M93.6 78.4s-5.9 6-15.9 9c0 0 9.8-.8 17.4-6.9l-1.5-2Z" fill="#FE7400" fill-rule="evenodd" clip-rule="evenodd"/><path d="M92.9 76s-6 6-16 9c0 0 9.9-.8 17.5-7l-1.5-2Z" fill="#FE7400" fill-rule="evenodd" clip-rule="evenodd"/><path d="M92.8 72.8s-5.9 6-16 9c0 0 9.9-.9 17.5-7l-1.5-2Z" fill="#FE7400" fill-rule="evenodd" clip-rule="evenodd"/><path d="M92.5 69.6s-6 6-16 9c0 0 9.8-.8 17.4-6.9l-1.4-2Z" fill="#FE7400" fill-rule="evenodd" clip-rule="evenodd"/><path d="M93 66.8s-5.9 6-16 9c0 0 10-.9 17.5-7l-1.5-2Z" fill="#FE7400" fill-rule="evenodd" clip-rule="evenodd"/><path d="M93.2 63.7s-6 6-16 9c0 0 9.9-.8 17.5-6.9l-1.5-2Z" fill="#FE7400" fill-rule="evenodd" clip-rule="evenodd"/><path d="M94.1 60.2s-5.9 6-16 9c0 0 9.9-.8 17.5-6.9l-1.5-2Z" fill="#FE7400" fill-rule="evenodd" clip-rule="evenodd"/><path d="M94.6 57.2s-6 6-16 9c0 0 9.9-.9 17.5-7l-1.5-2Z" fill="#FE7400" fill-rule="evenodd" clip-rule="evenodd"/><path d="M96.1 53.5s-5.9 6-16 9c0 0 10-.8 17.5-7l-1.5-2Z" fill="#FE7400" fill-rule="evenodd" clip-rule="evenodd"/><path d="M97.5 50.3s-6 6-16 9c0 0 9.9-.8 17.5-7l-1.5-2Z" fill="#FE7400" fill-rule="evenodd" clip-rule="evenodd"/><path d="M98.8 47.2s-5.9 6-16 9c0 0 9.9-.8 17.5-7l-1.5-2Z" fill="#FE7400" fill-rule="evenodd" clip-rule="evenodd"/><path d="M99.3 44.3s-5.9 6-16 9c0 0 9.9-.8 17.5-6.9l-1.5-2Z" fill="#FE7400" fill-rule="evenodd" clip-rule="evenodd"/><path d="M101.2 41.6s-6 6-16 9c0 0 9.8-.9 17.5-7l-1.5-2Z" fill="#FE7400" fill-rule="evenodd" clip-rule="evenodd"/><path d="M102.2 38.7s-6 6-16 9c0 0 9.9-.8 17.5-7l-1.5-2Z" fill="#FE7400" fill-rule="evenodd" clip-rule="evenodd"/><path d="M104.6 35.9s-6 6-16 9c0 0 9.9-.9 17.5-7l-1.5-2Z" fill="#FE7400" fill-rule="evenodd" clip-rule="evenodd"/><path d="M106.6 33.5s-6 6-16 9c0 0 9.8-.8 17.5-6.9l-1.5-2Z" fill="#FE7400" fill-rule="evenodd" clip-rule="evenodd"/><path d="M108.6 31.6s-6 6-16 9c0 0 9.9-.8 17.5-7l-1.5-2Z" fill="#FE7400" fill-rule="evenodd" clip-rule="evenodd"/><path d="M109.8 30s-6 6.1-16 9c0 0 9.9-.7 17.5-6.8l-1.5-2.1ZM72.7 93c-.8.6.1 1.8.8 1.1.6-.7.7-2-.8-1Zm4.6-5.9c-.9.6.1 1.8.7 1 .7-.6.7-2-.7-1Zm-12 6.1c-.9.6 0 1.8.7 1 .7-.6.7-2-.8-1Zm3.6-6.5c-1 .5.2 1.7 1 1s.9-2-1-1Zm16.6-24.5c-1 .6.2 1.7 1 1 .8-.6.9-2-1-1Zm.5 34.4c-.7 1 1 1.4 1.3.4.5-1-.1-2.2-1.3-.4Zm-14.6 8c-.7 1 1 1.4 1.4.5.4-1-.2-2.2-1.4-.4ZM61 83.3c-.8.6.1 1.8.8 1 .6-.6.7-2-.8-1Zm26.2-37c-.8.5.2 1.7.8 1 .6-.7.7-2-.8-1Zm-8.7-18.8c-.8.6.2 1.7.8 1 .6-.6.7-2-.8-1Zm3-5.6c-.9.6.1 1.8.8 1 .6-.6.7-2-.8-1Zm-9 3.7c-.8.5.2 1.7.8 1 .7-.6.7-2-.7-1Zm-11 9.5c-.9-.3-1.2 1.2-.3 1.3 1 0 2-.8.4-1.3Zm8.5-2.5c-.9.6.1 1.8.7 1 .7-.6.7-2-.7-1Zm16.3-5c-.6.4.2 1.2.6.7.5-.4.5-1.4-.6-.7Zm2.7-8.2c-.6.4.1 1.2.6.7s.5-1.4-.6-.7Zm5.5-4.1c-.6.3.1 1.1.6.7.4-.5.5-1.4-.6-.7Zm4 9.3c-.6.4 0 1.2.5.8.5-.5.5-1.5-.5-.8ZM90.9 37c-.6.4.1 1.2.6.8.5-.5.5-1.5-.6-.8Zm-6 1.3c-.6.4.1 1.2.6.7.4-.5.5-1.4-.6-.7Zm17-12c-.6.4.1 1.2.6.7.4-.5.5-1.4-.6-.7ZM50.5 94.9c-.6.8.7 1.6 1 .8.4-.9 0-2.2-1-.8Zm-6.6 6.2c-.6.9.7 1.6 1 .8.4-.9 0-2.2-1-.8Zm8.1 3.5c-.6.8.7 1.6 1.1.7.4-.8 0-2.2-1-.7Zm2.7-15c-.6.8.7 1.6 1.1.7.4-.8 0-2.2-1-.7Zm1.7 8.8c-.6.8.7 1.6 1 .7.5-.8 0-2.2-1-.7Zm-8.2-8.1c-.4.6.6 1.2.9.6.2-.7 0-1.7-.9-.6Zm2.3-5.5c-.4.7.6 1.3.8.6.3-.6 0-1.7-.8-.6ZM52 79c-.5.6.5 1.2.8.6.3-.7 0-1.7-.8-.6Zm8.6 0c-.4.5.6 1.2.9.5.2-.7 0-1.7-.9-.6Zm6.8-4c-.4.7.6 1.3.9.7.2-.7 0-1.7-.9-.6Zm1 5.7c-.4.6.6 1.3.9.6.2-.7 0-1.7-.9-.6ZM43.7 82c-.7.2-.3 1.3.3 1 .6-.4 1-1.5-.3-1Zm32.7 15.4c-.6 1 1 1.4 1.4.4.4-1-.1-2.1-1.4-.4Zm-10.7 3.4c-1 .5.2 1.6 1 1 .8-.7 1-2-1-1Zm-25-10c-.7.3-.3 1.4.3 1 .6-.4 1-1.4-.3-1Zm-5-7c-.8.3-.3 1.4.3 1 .6-.4 1-1.4-.4-1Zm3.3-4.6c-.7.3-.2 1.3.4 1 .6-.4 1-1.5-.4-1Zm-7.6-8c-.7.3-.3 1.4.3 1 .6-.4 1-1.4-.3-1ZM37 73c-.8.2-.3 1.3.3 1 .6-.5 1-1.5-.3-1Zm7.6 1.7c-.7-.3-1.1.8-.4.9.7.1 1.6-.4.4-1ZM34 53.8c-.3-.7-1.2 0-.8.5.4.5 1.4.7.8-.5Zm7-3.3c-.3-.7-1.2 0-.7.5.4.5 1.3.6.8-.5Zm-11.2 6.4c-.3-.6-1 0-.7.5.3.5 1.1.7.7-.5Zm15.6-13.2c0-.7-1-.8-1-.1 0 .7.8 1.4 1 0Zm.7 5.9c.1-.7-1-.8-1 0 0 .6.8 1.3 1 0ZM32.8 77.2c-.7.2-.3 1.3.3 1 .6-.5 1-1.5-.3-1Zm-4 6.3c-.8.3-.3 1.4.3 1 .6-.4 1-1.4-.3-1Zm2.1-18.9c-.7.3-.3 1.4.3 1 .6-.4 1-1.4-.3-1Zm4.2-4.6c-.7.2-.3 1.3.3 1 .6-.5 1-1.5-.3-1Zm-9.4 2c-.7.3-.3 1.4.3 1 .6-.3 1-1.4-.3-1Zm-.5 6.3c-.6-.6-1.4.3-.8.7.6.4 1.7.3.8-.7Zm9.8-1.5c-.4-.6-1.3.2-.8.6.5.5 1.6.5.8-.6Zm-7 11.5c-.4-.6-1.3.1-.8.6.5.4 1.6.5.8-.6Zm6.2 12.3c-.5-.6-1.4 0-.9.6.6.4 1.7.5.9-.6Zm3.4 6.8c-.4-.6-1.3.1-.8.6.6.5 1.6.5.8-.6Zm6.9-2.3c-.5-.6-1.4.2-.8.6.5.5 1.6.5.8-.6ZM27.6 72.7c-.7-.3-1 .9-.3 1 .7 0 1.6-.6.3-1ZM60.4 90c-1 .5.2 1.7 1 1 .9-.6 1-2-1-1Zm14-12.7c-1 .5.2 1.6 1 1 .8-.7.9-2-1-1Zm7.8 2.2c-1 .5.2 1.7 1 1s1-2-1-1Zm-22.5 30.4s-.9.9 0 1.2c.7.3 1.8.2 1-.4l-1-.8Zm19.8-5.7s-.8.8 0 1c.6.1.9-1.2 0-1Zm-7.7 5s-1 .5-.6 1c.4.6 1.2 1 1 .1l-.4-1Zm-7 5.4s-1 .4-.6 1c.4.5 1.2.8 1 0l-.4-1Zm1.6-6.5s-.8.8 0 1.1c.8.3 1.9.2 1.1-.4l-1-.7Zm3.9 7.5s-1 .4-.6 1c.4.5 1.2.8 1 0-.2-.8-.4-1-.4-1Zm8-6.7s-.8.7-.1.9c.7.2 1-1.1 0-1Zm7.3-8s-.8.7 0 .9c.6.2.9-1.1 0-1Zm-2.5 6.8s0 1 .7.7c.6-.4-.2-1.5-.7-.7Zm9.2-9.3s0 1 .6.7c.6-.5-.2-1.5-.6-.7Zm-.8 7.5s0 1.1.6.7c.6-.4-.2-1.5-.6-.7Zm-3.4 4.7s0 1.1.6.7c.6-.4-.2-1.5-.6-.7Zm6.1 4.3s0 1.1.6.7c.6-.4-.1-1.5-.6-.7Zm3.2-6s0 1 .6.7c.6-.4-.2-1.5-.6-.7Zm-17 4.7s0 1 .6.7c.6-.5-.2-1.5-.7-.7Zm-3.2 5s0 1 .7.6c.6-.4-.2-1.5-.7-.7Zm8.8-.8s0 1 .6.6-.2-1.4-.6-.6Zm16.5-5.6s0 1 .6.6-.2-1.4-.6-.6Zm-42.2-5s0 1.2.6.8c.6-.5-.2-1.5-.6-.7Zm-6 5.7s0 1 .5.7c.6-.5-.1-1.5-.6-.7Zm-2.5-51.2c-.4.5 1 .6 1.7.6.5 0 2 .3 2.7-.1.8-.4 1.8-1.5.4-1.6-1.4 0-3.8-.4-4.8 1Zm3 3s.5.7 1 .9c.4.2 1 .2 1.2 1.1.1 1 .3 1.5 1.1 1.2.9-.4 1.3-.5 1.9.1.5.7 1.2.7 1 .1-.2-.6.1-1.2-.7-1.4-.9-.2-.7-.2-1.6-.6-.8-.4-.2-.8-.7-1-.6-.2-.9-.9-1.3-.6-.5.3-1.9.1-1.9.1ZM44.2 51.3c-.2.6.7.6-.2 2-1 1.6-.6 1.7-1 1.9-.4.2-1 1.2-1 1.2s.3.5 1-.2 1-.8 1-1.3c0-.4 0-.8.6-1 .4-.2.3-.4 1-.7.5-.2 2.1-1 1.2-1-.8-.2-1.2.3-1.4 0-.2-.3-1-1.5-1.2-.9Zm6.5-5.2c-.5.6-.6.8-.5 1.8.1 1 .5 1.2.8.7.3-.5 0-1.2.9-1 1 0 .7-.4 1.7-.6 1-.2 1-.6 2.1-1 1-.4 2.1-1 1.4-1.2-.7-.3-1-.4-2 .3s-1.9 1.9-2.2 1.1c-.3-.7.3-1 0-1.5-.4-.4-.6-1.7-1-.7-.3 1 .3 1.1-.2 1.7-.5.6-.6-.1-1 .4Zm11-4.7c-.3.6-.2.6-.2 1.7 0 1-.4 2 .5 1.8 1-.3.7-1 1.6-.5 1 .5 1-.2 1.8.2.8.5.5-.3 1.4.3.8.7 1.4.1 1.2-.3-.3-.4-.5-.7-1-1-.6 0-1.4-.5-2.3-.4-.9 0-1.5 1-1.6 0 0-1 .2-1.9-.1-1.9-.4 0-1-.5-1.3 0Zm1.6 27.2c-.6-.4.6.8 1.2.5.7-.3.7-.7 1.5-.8 1 0 1.3 0 1.1-1-.1-1 .6-.6.2-1.4-.4-.8-1.1-2-1.1-.8s.4 1.4-.3 2c-.8.6-2.4 1.6-2.6 1.5ZM69 58c-.8-.2 1 .8 1.4 0 .4-.6.2-1 .9-1.5s1.2-.5.4-1.7c-.7-1.1 0-1-.7-1.8-.8-.8-2.2-2-1.5-.5.8 1.4 1.3 1.5 1 2.6-.4 1-1.3 3-1.5 3Zm7-7.7c-.7.2 1.2 0 1-.7 0-.7-.5-.9-.3-1.7.2-.7.6-1-.7-1.4-1.3-.5-.6-.9-1.7-1-1.1-.2-3-.4-1.4.4 1.4.7 1.9.5 2.3 1.4.4 1 1 3 .7 3ZM48 69.6c.9-.2.3.6 1.4.7 1.2 0 .7-1.1 1.9 0 1.2 1.3.8 2.1 1.6 1.7.8-.5 1.3-.4.4-1.2-1-.8-.7-.8-1.6-1.4-.8-.5-.6-1.1-1.3-.6-.8.4-.6.5-1.2.3-.6-.1-1.3.5-1.2.5Zm-3-13.8c-.5.1-.6 0-.7 1.5-.1 1.4-.7 1.4.4 2.3 1 .9 1 .3 2 1.1 1 .9 1.2 1.5 1.4.8.3-.7 1-.9.3-1.5-.7-.5.1-.4-1.2-1-1.2-.6-1.5-1.1-1.7-1.5-.2-.4 0-1.8-.5-1.7Zm17 1.5c.6.2.6 1.5 1.4-.7 1-2.1.1-1 1.1-1.7s2-1.3 1-2c-.8-.9-2-.8-1.5.1.4 1 1.9 1.6.5 2-1.3.2-3 2-2.5 2.3Z" fill="#FE7400" fill-rule="evenodd" clip-rule="evenodd"/><path d="M58.5 45.7c-1.5.2-3.2 0-4.6 2.3-1.3 2.5-2.3 2.7-1.1 3.7 1.2 1 2.4 1 2.4-.5 0-1.4-.5-2.7.9-2 1.3.5 2.6 0 2.2 1.2-.4 1.4.2-.5-1 1.5s.2 2-1.2 2.3c-1.5.4-.7 1.2-2.4.5s-2.2.3-2.6-1c-.3-1.3.7-1.4-.2-2-.8-.5-1.3-2.2-1.5.2-.2 2.5-1 2.5-.2 3.5.9 1 0 1.2 1.6 1 1.5-.3 2-1 1.9 0-.2 1.2.3 1.3-.7 1.5-1 .2-.9 0-1.7.2-.8 0-.2.6-1.6-.3-1.4-1-.2-1.6-1.4-2.5-1.3-1-1.3-2-1.8-.6-.4 1.4-1.2-.6-.4 2 .7 2.8-.2 3.2 1.5 3.4h1.9c.7.2 1.5-.3 1.8.4.3.7 1.6 2 1.6 2s-.4.5 1.3-.7c1.7-1.2 1.5-1.3 2.2-1 .7.4-.8 2 1.6.2 2.5-1.8 3.1-2 2.3-3-.7-.9-.2-2.2-1.8-1-1.6 1.3-1.3 3.6-2 1.9-.6-1.8-.6-2 .3-2.3.9-.2 1 2 1.7.5.6-1.6.9-2.3 2.6-1.4 1.7 1 2.4 1 2.4.3 0-.9 2.5-1.5-.1-2-2.7-.7-3.7.5-3.2-1 .6-1.3.5.6 1-1.7.4-2.2 1.4-2.6.2-3-1.1-.5-1.9.3-1.6-.5.2-.9 1.1-2.3-.3-2.1Z" fill="#FFED9D" fill-rule="evenodd" clip-rule="evenodd"/><path d="M65.3 57.3c-.4.6-.4.8-.4 2 .1 1.3.5 2 0 2.5-.7.3-1 .5-1.5 1.3-.6.7-.8.9-1.1 1.8-.4.8-.7 1.8 0 1.2.9-.7.2-.4 1.3-1.2 1.1-.9 1.2-.8 1.5-1.4.4-.6.2-.8.5-1.1.3-.4.7.4.5-.8-.1-1.3-.3-.7-.2-2 .1-1.3.3-1.5.4-2 0-.4-.6-.8-1-.3Zm-19 9.6c-.5-.5-.7-.5-2-.5-1.2 0-2 .4-2.3-.2-.4-.7-.5-1-1.3-1.6-.7-.6-.8-.8-1.7-1.2-.8-.4-1.8-.8-1.2 0 .6.9.3.2 1.1 1.4.8 1.1.7 1.2 1.3 1.6.6.3.8.2 1.1.5.3.3-.5.6.8.6 1.2-.1.6-.3 2-.1 1.2.2 1.4.4 1.9.4.4 0 .9-.5.3-1Z" fill="#FE7400" fill-rule="evenodd" clip-rule="evenodd"/><path d="M61.9 42.7c-.6.7.6 1.2 1.6 1 1 0 0-1.5 1.7-.4 1.8 1.1 2.3.4 2.1 1.7-.2 1.2.8.9.3 2.2-.6 1.2-.8.9-1.8.4-1-.4-.2-1.8-1.7-.9s-1.3.5-.6 1.5c.7 1 2.4-1 .6 1.4-1.8 2.3-2.9 1.4-.6 2.1 2.2.8 2.1.7 2.7-.6.6-1.4.5-1.3 1.5-1.9 1-.5 1.4 1 1.7-1.2.3-2.2 1.1-2 .3-3.1-.9-1.3.3-1-1-1.8-1.5-.8 1.7-.5-1.8-1s-3-1.7-5 .6ZM48.5 63c1.1 0 2-1 2 1 .1 2 0 2.7-1.6 1.8-1.5-.8-1.6-2.8-.4-2.8Zm23.7-18.3c-.6-1 0 .9-.2 2.5-.3 1.6.5 1.6-.5 2.2-1 .6-2 0-1.7 1.5.3 1.5-.7 2.4.7 1.4 1.3-1 .7-.3 1.6-1.5 1-1.1 1 1.1 1.3-2 .3-3-.4-2.6-1.2-4ZM68 53.3c-.3 1-.5 1-1.1 2.3-.6 1.2-1.2 1.7 0 1.3 1.4-.4 2.2.2 2-1-.3-1.4-.7-3.7-1-2.6Zm-4.4 6c.7-.7-2-.5-2.1 1.2 0 1.7.5 2.5-1.2 2.8-1.7.2-1.8 1.3-3 .7-2-1-1 1.4 0 1.5 1.2 0 1.7-.2 2.8 0 1 .1 2.2-.6 2.4-1.2.1-.6 0-3.7 1-5Zm-8.9 8.8s1.2-2.5 2.3-.7c1 1.7 1.2 2 .6 1.7-.6-.2-2.2-1.5-2.9-1ZM53 64.4c-.2.7 0 1.3.5 1.4.6 0 1.2-.2 1.6-1 .5-.7 1.2-1.5.2-1.4-1.1.1-2.1.3-2.3 1Zm-10-1c.7.3 1.5 0 1.4 1.4 0 1.4-.4 2-1.1 1.4-.8-.6-2-.8-2.6-1-.7-.1-1.7-.5-.7-.8 1-.3 2.4-1.1 3-1Zm29-8.3c.6-.3-1 0-1.1 1.4 0 1.5 0 2.5.6 1.5s0-2.8.4-3Zm-8.3 14.5c-.4.8 1.9-1.1 2.8-.2 1 .9 1.4 1.5 0 1.3-1.3 0-2.7-1.4-2.8-1Zm-22-14.2c-.5-1.2 1.2 2.9.3 3.4-.9.4-1.4 1.4-1.3.3.2-1.1 1.3-3 1-3.7Zm5 11.9s.4-.8 1.4.3c1 1.1 1 1.8 1 1.8l-1-.2c-.9-.3-1 .6-1.9-.8-.8-1.4.5-1.1.5-1.1Zm23.7-7c-.8-.3-1.6.7-1.8 2-.2 1.3.7 2.2.9 1 .1-1 1.3-3 .9-3Zm5.5-6.6c-.8-.4-1.6 1.3-.7 2 1 .5.7 1 1.2.3.6-.6-.2-2.2-.5-2.3ZM72.5 64c-.5.2-1.6 1-1.2 1.6.4.5 1.8-1.8 1.2-1.6Zm7.7-19.8c.4 1.3 1 3 1.2 1.7.2-1.3-1.5-3-1.2-1.7Zm-2.8 15c-1.4 0-1.5 2.4-.6 2.1 1-.3.8-2 .6-2ZM61.9 74c-.6-.1-3.7 1.8-1.8 1.7 1.9-.2 2.3-1.5 1.8-1.7Zm12.5-5.3c-.7 1 1.6 1.4 1.7-.1 0-1.6-1-.7-1.7.1Zm7.4-12.8c-.3.5-1.4 2-.7 2.3.6.3 1.4 0 1.2-1-.2-1.1-.2-1.8-.5-1.3Z" fill="#FFED9D" fill-rule="evenodd" clip-rule="evenodd"/><path d="M79.1 37.5c.3.6.7 1.1 1.4.6.7-.5.8-1.4.2-1.5-.5-.1-1.8.3-1.6 1Zm3.5-6c.1.2.3.5.7.3.3-.3.4-.9.1-1-.3 0-1 .3-.8.6Zm5.6.9c.1.3.4.6.7.3.4-.2.4-.8.1-.9-.2 0-.9.3-.8.6Zm5.3-7c0 .3.3.6.6.4.4-.3.5-.9.2-1-.3 0-1 .3-.8.6Zm-1.2 4.3c0 .3.3.6.7.3.3-.2.4-.8 0-.8-.2-.1-.8.2-.7.5Zm4.6-1.3c0 .4.3.7.6.4.4-.3.5-.8.2-1-.3 0-1 .3-.8.6Z" fill="#FFEC9C" fill-rule="evenodd" clip-rule="evenodd"/><path d="M89.7 36.1c-.4.4-1 1.5-.8 2.2.2.7-.6 1.2.3 1.6.8.4 1.5-.1 1.2-1.2-.4-1-.3-3-.7-2.6Zm-39 37c.2.8 2.2 2.5 1.7.8-.6-1.6-2-1.8-1.8-.9Zm2-29c-.6 1-1 2.4.3 1.3 1.3-1.1 3-2 1.9-2-1.2 0-1.7-.4-2.2.7Z" fill="#FFED9D" fill-rule="evenodd" clip-rule="evenodd"/><path d="M71.1 38.9s0 1 1.3 1c1.3-.1 2.2-1 1.4-1.3-.8-.3-2.7.3-2.7.3Z" fill="#FFEC9C" fill-rule="evenodd" clip-rule="evenodd"/><path d="M58 38.6s.2.4 1 .6c.8.3 2.1.6 2-.4 0-1 .2-1.4-.8-1-1 .5-2.3.8-2.3.8ZM40.7 71c-.4.4 1.3-.2 1.8.6.6.8 2.7 1 1.8.2-.9-.7-2.4-2.2-3.6-.8ZM70 74c.3.5 0-1.2.8-1.7.9-.4 1.4-2.4.5-1.7-.8.8-2.5 2-1.3 3.5Zm-2-37.3c0-.5-1.2.7-2 .2-.9-.5-2.9.1-1.7.5 1 .3 3 1 3.6-.7ZM45.1 48.1c-.5-.4 1.1-.1 1.3-1.3.3-1 2-2 1.5-.7-.5 1.2-1.2 3.4-2.8 2Z" fill="#FFED9D" fill-rule="evenodd" clip-rule="evenodd"/><path d="M25.4 42.4c7-5.4 14.2-10.7 18-13C52.5 24 77.6 10.7 94.8 11c0 0-23.8 15-39.2 24.4-19.4 12-23.5 25.6-34.5 24.9a60 60 0 0 1 4.3-18Z" fill="#DE8114" fill-rule="evenodd" clip-rule="evenodd"/><path d="M98 35.5c.7 2.2 1.8 4.1 2.6 5.8 1.4 3 8.8 4.6 10.4 8.3 1.5 3.7 39.4 34.8 45.1 36.4 5.7 1.6 21 1.1 22.6 2.5 1.6 1.3 16.3 11.2 20.4 9.7l1-.3a59.4 59.4 0 0 1-51.4 29.8A60.9 60.9 0 0 1 98 35.5Z" fill="#FD9500" fill-rule="evenodd" clip-rule="evenodd"/><path d="M157 118.5Zm.4.6Zm-.5-.6h.4v.1h.1v.1h.1v.2h.1v.4h-.1v.1h-.1v.1h-.1v.1h-.9v-.1h-.1v-.2h-.1v-.6h.1v-.1h.2v-.1h.5Zm-5.8.4Zm-.5-.6h.2v.1h.2v.2h.1v.7h-.1v.1h-.2v.1h-.5v-.1h-.1v-.1h-.1v-.3h-.1v-.4h.1v-.2h.2v-.1h.4Zm1.2 3.6Zm.3-1h.4v.1h.1v.1h.1v.7h-.1v.1h-.4v.1h-.5v-.1h-.1v-.1h-.1v-.2h-.1v-.5h.1v-.1h.1v-.1h.4Zm10-1Zm0-1.1h.4v.1h.1v.2h.1v.6h-.1v.1h-.2v.1h-.6v-.1h-.1v-.2h-.1v-.6h.1v-.1h.1l.1-.1h.2Zm-2.8 4.2Zm.8.2Zm0 0Zm-.3-.7h.2v.1h.2v.1h.1v.9h-.1v.1h-.5v.1h-.4v-.1h-.1v-.1h-.1v-.2h-.1v-.5h.1v-.1h.1l.1-.1h.5Zm-13.2-5.4h.4v.1h.1v.2h.1v.5h-.1v.2h-.1v.1h-.1v.1h-.2v.1h-.5v-.1h-.1v-.1h-.1v-.9h.1v-.1h.1v-.1h.2v-.1h.2Zm-3.9 5Zm-.3.8Zm.2.2Zm.3-1h.4v.1h.1v.2h.1v.5l-.1.1h-.1v.1h-.2v.1h-1v-.2h-.1v-.7h.1l.1-.1h.2v-.1h.5Zm-2.8-4.2h.2v.1h.1v.1h.1v.2h.1v.4h-.1v.1l-.1.1h-.1v.1h-.6v-.1h-.1v-.2h-.1v-.5l.1-.1.1-.1h.2v-.1h.1Zm-1.3-3.9Zm-.5.8Zm.2.3Zm0 0Zm.3-1h.4v.1h.1v.1h.1v.6h-.1v.1h-.1v.1h-.7v-.1h-.1v-.2h-.1v-.5h.1v-.1h.1v-.1h.3Zm-2.9 3Zm0 .1Zm0 0Zm.6-.7h.2l.1.1h.1v.1l.1.1v.7h-.2v.1h-.4v.1h-.7v-.1l-.1-.1v-.7h.1v-.1h.2v-.1h.2l.1-.1h.2Zm-1.6-4Zm-1 .3h.1Zm.2 0Zm.3-1h.1v.1h.2v.1h.1v.1h.1v.2h.1v.5h-.1v.1h-.2v.1h-.7v-.1h-.1v-.2h-.1v-.5l.1-.1.1-.1h.1l.1-.1h.2Zm-4.3 2.9Zm0 0Zm.5-.3h.4v.1h.1v.1h.1v.7h-.1v.1h-.1l-.1.1h-.5v.1h-.7v-.1h-.1v-.2h-.1v-.5h.1v-.1h.1v-.1h.1l.1-.1h.4v-.1h.2Zm-2-4.7h.2v.1h.2v.1h.1v.2h.1v.6h-.1v.1h-.2v.1h-.6v-.1h-.1v-.1h-.1v-.2h-.1v-.5h.1v-.1h.1v-.1h.4v-.1Zm-5.1 3.3Zm.3.3Zm-.4-.4h.4v.1h.2v.1h.1v.1l.1.1v.6h-.1v.1h-.2v.1h-.1v.1h-.2v.1h-.4v-.1h-.1v-.1h-.1v-.1h-.1v-.1h-.1v-.7h.1v-.1h.1v-.1h.4Zm-.6 4.5Zm0 1Zm.1-1.2h.5v.1h.1v.1h.1v.1h.1v.7h-.1v.1h-.2v.1h-.7v-.1h-.1v-.1h-.1v-.1h-.1v-.7h.1v-.1h.4v-.1h.1Zm-5.3-4.2Zm0 0Zm0 .1Zm0 .1Zm.5-.5h.4v.1h.1v.2h.1v.6h-.1v.1h-.2v.1h-1v-.1h-.1v-.1h-.1v-.6h.1v-.1h.1v-.1h.2l.1-.1h.2Zm3.8-2.6Zm0 0v.1Zm-.2.3Zm0 0Zm-.2-1.1h.4v.1h.1v.1h.1v.7h-.1v.1h-.1v.1h-.1v.1h-1v-.2h-.1v-.6l.1-.1h.1v-.1h.1v-.1h.5v-.1h.1Zm.1-2.9Zm0 .1Zm.3-1h.1v.1h.2l.1.1h.1v.1h.1v.1h.1v.1h.1v.6h-.1v.1h-.1v.1h-.7v-.1h-.4v-.1h-.1v-.2h-.1v-.6h.1v-.1h.2v-.1h.2Zm-7.6 6.7h.4v.1h.2v.1h.1v.4h.1v.4h-.1v.1h-.1v.1h-1.1v-.1h-.1v-1h.2v-.1h.2Zm54 9.3h.4v.1h.1v.1h.1v.1h.1v.1h.1v.7h-.1v.1h-1v-.1h-.2v-.1h-.1v-.1h-.1v-.7l.1-.1h.1v-.1h.5Zm1-2.6h.2v.1h.1v.1h.1l.1.1.1.1v.1h.1v.6h-.1v.1h-.2v.1h-.6v-.1h-.1v-.1h-.1l-.1-.1v-.1h-.1v-.7h.1v-.1h.4v-.1h.1Zm3.5-2.3Zm.5.7Zm0-1.2h.2v.1h.1v.1h.1v.1h.1v.7h-.1v.2h-.1v.1h-.1v.1h-.2v.1h-.6v-.1h-.1v-.2h-.1v-.6h.1v-.2h.1v-.1h.1v-.1h.2v-.1h.4Zm3.4 1.3Zm.4-.2h.4v.1h.1v.1h.1v.4h.1v.4h-.1v.1h-.1v.1h-1v-.1h-.1v-.2h-.1v-.5h.1v-.1h.1v-.1h.4Zm1-2Zm.5.4Zm0-1h.4v.1h.1v.2h.1v.4h-.1v.4h-.1v.1h-.1v.1h-.1v.1h-.6v-.1h-.1v-.1h-.1v-1.1h.1v-.1h.1l.1-.1h.4Zm5-1.6h.2v.1h.2v.2h.1v.7h-.1v.2h-.2v.1h-.7v-.1l-.1-.1v-.1h-.1v-.7h.1v-.1h.2v-.1h.4ZM114 102Zm.9 0Zm-.4-.8h.4v.1h.1v.1h.1v.7l-.1.1h-.1v.1h-.1v.1h-.2v.1h-.5v-.1h-.1v-.1h-.1v-.7l.1-.1h.1v-.1h.1v-.1h.1l.1-.1h.2Zm-.7 3.3h.4v.1h.1v.1h.1v.1h.1v.7h-.1v.1h-.2v.1h-.5v.1h-.5v-.1h-.1v-.1h-.1v-.7l.1-.1h.1v-.1h.1v-.1h.4Zm-4 2.6Zm.2 1Zm0-1.2h.4v.1h.1v.1h.1v.2h.1v.4l-.1.1v.1h-.2v.1h-.1v.1h-.5v.1h-.4v-.1h-.1v-.1h-.1v-.2h-.1v-.5h.1v-.1h.1v-.1h.1l.1-.1h.1l.1-.1h.2Zm-2.3-3.7Zm0 .4Zm0 0Zm0 .3Zm.5-1h.1v.1h.2v.1h.1v.2h.1v.6h-.1v.1l-.1.1h-.1v.1h-.6v-.1h-.1v-.1h-.1v-.7h.1v-.1h.1v-.1h.2v-.1h.1Zm3.1-2Zm-.2-.9h.2l.1.1h.1v.1l.1.1v.7h-.1v.1h-.4v.1h-.1l-.1.1h-.6v-.1h-.1v-.4h-.1v-.4h.1v-.1l.1-.1h.1v-.1h.2v-.1h.4Zm-7-1.3Zm.4-.9h.2v.1h.1v.1h.1v.1l.1.1v.5l-.1.1h-.1v.1h-.2v.1h-.5v.1h-.7V99h-.1v-.1h-.1v-.7h.1l.1-.1h.4V98h.4v-.1h.3Zm3.5-4.5h.2v.1h.1v.1h.1v.2h.1v.5h-.1v.1h-.2v.1h-.1v.1h-.2v.1h-.6v-.1h-.1v-.2h-.1v-.5h.1v-.1l.1-.1.1-.1h.1v-.1h.4Zm-5-2.7h.4v.1h.1v.1h.1v.2h.1v.4h-.1v.1h-.1v.1h-.1v.1h-.6v-.1h-.1v-.2h-.1v-.5h.1v-.1h.1v-.1h.2v-.1h.1Zm6.7 7Zm0 0Zm.1-.3h.5v.1h.1l.1.1v.1h.1v.7h-.1v.1h-.2v.1h-.7v-.1h-.1v-.1h-.1v-.1h-.1v-.7h.1l.1-.1h.4Zm-9.9-11v-.1Zm0 0Zm.4-1h.2v.1h.2v.1h.1v.1h.1v.2h.1v.5h-.1v.1h-.1v.1h-1.1v-.1h-.1v-.2h-.1v-.5l.1-.1.1-.1h.1v-.1h.5Zm1 6.3Zm-.4-.7h.4v.1h.2l.1.1h.1v.2h.1v.6h-.1v.1h-.2v.1h-1V92h-.1v-.1h-.1v-.1h-.1v-.6h.1V91h.6Zm5.4-.6h.5v.1h.1v.2h.1v.6h-.1v.1h-.2v.1h-.6v.1h-.4v-.1h-.1v-.1h-.1v-.1h-.1v-.6h.1v-.1h.1v-.1h.2v-.1h.5Zm-2.2 5.2Zm-.1-1.2h.4v.1h.2v.1h.1v.1h.1l.1.1v.1h.1v.7h-.2v.1h-.7v-.1h-.2v-.1h-.2v-.1h-.1v-.1h-.1V95l-.1-.1v-.5h.1v-.1h.2v-.1h.2Zm14 8.6Zm-.1 0Zm0 0Zm-.1.1Zm0 .1Zm-.1-.4h.7v.1h.2v.1h.1v.2h.1v.5h-.1v.1h-.1v.1h-.2v.1h-.5v.1h-.7v-.1h-.1v-.1h-.1v-.1l-.1-.1v-.6h.1v-.1h.1v-.1h.4v-.1h.2Zm1 4h-.1Zm-.2 0Zm0 .1Zm0-.2h.4l.1.1h.1v.1h.1v.1h.1v.2h.1v.4h-.1v.1l-.1.1h-.4v.1h-.6v-.1h-.2v-.1h-.1v-.9h.1v-.1h.4Zm9 6.2h.6v.1h.1v.1h.1v.2h.1v.5h-.1v.1h-.2v.1h-1v-.1h-.1v-.2h-.1v-.5h.1v-.1h.1v-.1h.5v-.1Zm2.3 7.3h.4v.1h.1l.1.1h.1v.1h.1v.2h.1v.5h-.1v.1h-.1v.1h-.2v.1h-.7v-.1h-.1v-.1h-.1v-.1h-.1v-.2h-.1v-.4l.1-.1v-.1h.1l.1-.1h.3Zm-18.4-26h.1v.1h.4v.1h.1v.4h-.1v.1h-.4l-.1-.1h-.2v-.1l-.1-.1v-.4h.2Zm-3.6 4.2h.2v.1h.2v.4h-.1v.1h-.2v.1h-.4v-.6h.2Zm-2.2 4.5h.4v.1h.1v.4h-.6v-.1h-.1v-.4h.2Zm-6.9-21h.3v.1l.1.1h.4v.5h-.6v-.1h-.5l-.1-.1v-.4h.1v-.1h.2Zm5.2 6.4Zm.2-.2h.2v.1h.1v.4h-.1v.2h-.1v.1h-.4v-.5h.1V88h.2Zm11.2 16h.2v.1h.1v.4h.1v.4h-.5v-.1h-.1v-.1h-.1v-.5h.4Zm-3.8 1Zm0-.3h.4v.6h-.4l-.1-.1h-.2v-.5h.4Zm14 6.7Zm-.2-.2h.2v.2h.1v.4h-.2v.1h-.2v-.1h-.1v-.4h.1v-.1Zm2.1 4.5Zm0-.5h.2v.1h.1v.4h-.4v.1h-.3v-.1h-.1v-.4h.1v-.1h.5Zm-1.3-6.5h.2v.5h-.2v.1h-.4v-.5h.2v-.1h.1Zm8.1 11.6h.1v.1h.1v.4h-.1v.1h-.9v-.5h.7Zm-3-1.8v.1h.1v.1h.1v.3h-.1v.1h-1.1v-.1h-.2v-.1l-.1-.1v-.4h.1v-.1h.5v.1h.1v.1h.4Zm6.4.9h.4v.1h.1v.4h-.1v.1h-.1v.2h-.5v-.1h-.1v-.5h.2v-.1h.2ZM96.1 76.6h.2v.1h.4v.1h.1v.4H96V77h-.2v-.4h.1v-.1h.1Zm-1 7Zm0-.5h.2l.1.1h.1v.1h.1v.4h-.1v.1H95v-.5h.1Zm-2.3-9.8h.4v.1h.1v.4H93v.1h-.4v-.1h-.1v-.4h.2Zm.9-3.8h.1v.1h.1v.4h-.5v-.4h.2Zm-1.3 9Zm0-.6h.4v.1h.1v.5h-.6v-.1h-.1V78h.1v-.1h.1ZM97 89.5h.5v.1h.1v.4h-.7v-.1h-.1v-.4l.1-.1h.1Zm71.5 26.3h.5v.2h.1v.2l-.1.1h-1v-.1h-.1v-.2h.1v-.1h.5Zm5.3 4.4Zm-.1 0h.2v.5h-.4v-.5h.1v-.1h.1Zm-19.4-3.3h.2v.1h.1v.4h-.4v-.1h-.1v-.4h.2Zm-10.8-1.7h.2v.2h.1v.4h-.5v-.4h.2Zm5 7.8Zm.1.2Zm0-.5h.2v.1h.1v.4h-.1v.1h-.1v.1h-.1v.1h-.4v-.1h-.1v-.4h.1v-.1h.1l.1-.1v-.1h.2Zm-9.3 0Zm.3-.2h.1v.1h.1v.4h-.1v.4h-.1v.1h-.1v.1h-.5v-1h.1v-.1h.2Zm6-2.6h.2v.1h.1v.4h-.1v.1h-.5l-.1.1h-.2v.1h-.4v-.4h.1v-.1h.2l.1-.1h.2v-.1h.2Zm-10.4 3.8h.2v.4h-.1v.1h-.2v.1h-.4v-.5h.3v-.1h.2Zm19.2 1h.2v.2h.1v.5h-.4l-.1-.1v-.1h-.1v-.4h.1v-.1h.2Zm-6 .6h.3v.1h.1v.5h-.5v.1h-.4v-.6h.1l.1-.1h.1Zm15.8-2.8h.3l.1.1h.1v.4h-.1v.1h-.7v-.1h-.1v-.4h.2v-.1h.1Zm1.6-5.6h.4l.1.1h.2l.1.1v.4h-1.1v.1h-.3v-.1l-.1-.1v-.4h.2v-.1h.5Zm-50.6-7.8h.2v.1h.1v.1h.1v.4h-.1l-.1.1h-.5v-.1h-.1v-.4h.1v-.1h.1v-.1h.2Zm6 2.2h.1v.1h.1v.4h-.2v.1h-.2v-.1h-.1v-.5h.1v-.1h.1Zm-.5 3.8h.1v.1h.1v.5h-.1v.1h-.1v.1h-.5l-.1-.1v-.4h.1v-.2h.2Zm4.8-8.5h.1v.1h.1v.4h-.1v.1h-.5v-.1h-.1v-.4h.1l.1-.1ZM91.8 61.7Zm-.3-.2h.4v.1h.1v.4h-.5l-.1-.1v-.4h.2Zm-1 4.3h.1v.1h.1v.4h-.1v.1h-.2v.1H90V66h.1v-.1h.5Zm1.8.4Zm.3.4Zm0-.5h.1v.1h.1v.4h-.1v.1h-.1l-.1.1H92v-.4h.1v-.1h.2V66h.1Zm.8 15h.1v.1h.1v.4h-.4v.1H93v-.1h-.1v-.4h.1v-.1h.4Zm1.5-7.9Zm0 0Zm0 0Zm.2.3Zm0-.5h.2v.1h.1v.4H95v-.1h-.1V73h.2Zm1 7.2Zm-.3.1Zm.1-.5h.2v.5h-.5v-.4h.4Zm-.8 7Zm-.3-.3h.1v.1h.2v.1h.1v.3H95v.1h-.4V87h-.1v-.4h.2Zm4 8.2Zm.2-.5h.1v.1h.1v.4h-.5v-.4h.2v-.1Zm1.4 3.4Zm0 0v.1Zm0 .1Zm0 .1Zm-.3.2Zm.1-.5h.2v.2h.1v.3h-.5v-.4h.2Zm.8-1.5Zm.1-.5h.1l.1.1h.1v.5h-.4V96h-.1v-.4h.2Zm1.3 7h.2v.1h.1v.4h-.2v.1h-.4v-.1h-.1v-.4h.5Zm4 4h.2v.1h.1v.4h-.1v.1h-.4v-.1h-.1v-.5h.2Zm12.1 12Zm.2-.6h.1v.1h.1v.1h.1v.4h-.4v-.1h-.1v-.1h-.1v-.3h.2Zm6.7 2Zm0 0Zm0 .5Zm0 0Zm0 0h.1Zm0-.5h.2v.1h.1v.4h-.4v-.4h.1Zm-3.3-17h.2v.1h.1v.6h-.4v-.1h-.1v-.1h-.1v-.4h.4Zm-7.1-4.4Zm.2-.2h.2v.2h.1v.2h-.1v.1h-.1v.1h-.4v-.1h-.1v-.2l.1-.1h.1v-.1h.1v-.1h.1Zm26.2 27h.2v.1h.1v.1h.1v.1h.1v.4h-.5l-.1-.1v-.1h-.1v-.4h.2Zm9.8-10.1h.4v.5h-.1v.1h-.4v-.5h.1v-.1h.1Zm38.3-6.3h.2v.1h.1v.1h.1v.4h-.6v-.1h-.1v-.4h.2Zm-3.1 2.3h.1v.1h.1v.5h-.4v-.2h-.1v-.4h.2Zm-5 5.5h.1v.1h.1v.1h.1v.4h-.5v-.1h-.1v-.4h.1v-.1h.1Zm-.7-3.5Zm0 0Zm.3.1Zm-.1-.4h.1v.1h.1v.1h.1v.4h-.1v.1h-.4v-.1h-.1v-.4h.2Zm-4.4 2Zm-.3-.2h.2v.1h.1v.1h.1l.1.1v.4h-.1v.1h-.4v-.2h-.4v-.2h-.1v-.2h.1v-.1h.2Z" fill="#F57A07" fill-rule="evenodd" clip-rule="evenodd"/><path d="M154.3 19.7s-29.2-7.5-46.6 6c-17.5 13.8-16.9 27.6-14 39.4 3 12 16.2 29.3 35 41a59.7 59.7 0 0 0 57.7 3c17.7-8 22.2-23.5 19.5-42.4-2.8-18.9-22.3-41-51.6-47Z" fill="#FFC54B" fill-rule="evenodd" clip-rule="evenodd"/><path d="M99.4 35.6c.5-.7 1-.6.7 0h-.7ZM98 37.8c0-.1.2-.1.1 0ZM93.6 51s3-8.5 2.7-7.2c-.1.3-.4.5-.6.7-.3.3-.4.7-.4 1.1V47c-.4 1-1.2 1.8-1.5 2.7-.2.6 0 1-.2 1.5ZM200 53.9l.2.4h-.3l.1-.4ZM97.3 68.8c.4 1.3-.8-1.3-.2-.4l.2.4Zm1.8 5.1.3.3.2.5-.5-.8Zm103.8 13.2c-1.7 5.5-3.7 7.1-3.6 7 1.2-.5 3.2-6.4 3.6-7Zm-76.2-67.7 1.6.2 1.3.2c.7 0 1.5-.5 1.5-.5.6.2 1.3 0 1.8-.5h.3c1.3.1 2.7.5 4 1 1 .5 2-.4 2.8-.9l.2.4c.5.8 1.6 1 2.5 1 .6-.1 1-.4 1.5 0 .4.2.8.5 1.3.5.8 0 1.9-.5 1.9-.5.7.5 1.4.7 2.1.4h.3c.8 1.1 2.1.6 3.3.4l.2.2c.7.5 1.5.4 2.3.3.2.4.4.7.8.9 1 .5 2-.1 3-.2l.2.5c.5 1 1.6 1.3 2.6 1v-.1l.5-.2.2.3c.7.9 2 .5 2 .5l.4.7c.5.6 1.4.7 2.1.4h.1c0 .3.2.6.4.8.4.5 1 .6 1.6.5 0 .5.4 1 1 1.2.5.3 1.3 0 1.3 0l.5 1c.6.7 1.7.8 2.6.6 0 1.1.9 1.8 1.9 1.8.5 0 1-.2 1.2 0l.1.1.3.4c.6.9 1.5 1.1 2.4 1 0 .3.2.6.5.9.5.3 1.5.3 1.9.3l.2.2.2.6c.4 1.2 1.3 1.9 2.3 1.9h.1l.3 1c.4 1.3 1.2 1.6 2 1.7h.3v1.4c.3.8 1.2 1.1 1.2 1.1.2.5.2 1 .5 1.3.4.7 1.6.7 1.6.7v1c.2.7 1 .8 1 .8v1c.2.5.7.8 1.3 1l.6.1v1c.2 1.1 1.7 1.4 1.7 1.4-.2.5-.4 1-.3 1.5.2.8 1 1 1.8 1h.4c-.3.8-.8 1.5-.6 2.3.2 1 1.8 1.2 1.8 1.2v1c.2.7.8 1.3 1.6 1.3L201 60c.1 1 1.3 1.4 1.3 1.4-.2.6-.4 1.3-.2 1.8.3.8 1.4 1.2 1.4 1.2l-.3 1.2c-.2 1 .9 1.6.9 1.6v.8l.1 2a3 3 0 0 0-.6 1.3v.6c.2 1 .6 1.8.7 2.7-.3.5-.8 1-1 1.6 0 .6.3 1.2.7 1.6v.2c-.3.9-1 1.7-.7 2.6.2.7.2 1.5 0 2.2-.6 1.9-2 3.4-3.2 5-.5.7-.7 1.7-1 2.6l-.5 2-1 .7-.2.5c-1 1.9-2.8 3.2-4.3 4.7-.8.7-.6 1.5-1.3 2l-3 2.7c-.5.4-1 .8-1.5 1h-1c-.6.2-1 1.1-1 1.1-.7.2-1.4.5-1.9 1-.5.4-.8 1.2-.8 1.2-1-.3-1.9.8-1.9.8-.4.1-1 0-1.4.2-1 .2-2 1-3.2 1.2-.5 0-1 .4-1.3.6l-1.5.4c-.6-.5-1.3-.4-1.3-.4-.8.3-1.4.2-2.3.3-.8 0-1.7 1-1.7 1-.7-.2-1.3-.7-2-.7-1 0-1.6.8-2.1 1.3l-4.5.2c-.8-.7-1.8-1.4-2.8-1.2l-3.2.4-1 .1c-.5-.2-.9-.8-1.4-1-.5-.2-1 0-1 0h-.8a27 27 0 0 1-6.2-1.6c-.3 0-.5 0-.7-.4l-.1-.2c-.6-1-1.6-1.3-2.6-1.3h-1.3c-.3 0-.6-.3-.9-.5-1-.5-2.6-.1-3.2-.6l-.4-.5c-.4-.5-1-.8-1-.8-.9-.4-1.8-.6-2.7-.8-.5-.2-1-.3-1.3-.7-.4-.5-.7-1-1.3-1.3-.6-.3-1.3-.5-2-.6a95 95 0 0 1-4.2-3 9 9 0 0 0-1.9-2c-.4-.4-1-.4-1.3-.6-.3-.3-.3-.9-.5-1.3-.5-1.4-1.8-1.9-2.7-2.8-.2-.1-.4-.2-.4-.4-.2-.4-.1-.9-.3-1.3-.6-1.2-3.1-1.9-3.1-1.9l-.5-.7c-1-.7-1.8-2-2.7-2.9-.6-.5-1.2-.5-1.6-1-.9-.9-1-2.2-1.6-3.3-.5-1-1.3-1.7-2-2.5-.8-1-1-2.6-1.3-4-.2-.4-.5-.7-.9-1l-1.1-4s0-.4-.2-.7c-1-1.2-1.7-2.6-2.5-4l-.2-.4c-.2-1.5.3-3 .2-4.5-.1-1-.6-1.4-1.2-1.7v-.7c.2-.2.3-.6.3-1 0-.3-.2-.3-.4-.5l-.1-.4-.2-.2c0-.7 0-1.5.3-2.1.3-.7.4-2 .4-2l1.5-2.5c.3-.7.1-1.9.1-1.9.5-.4.8-1 1-1.6.3-1.3.3-2.7.5-4l.1-.2c.4-.1.7-.4.8-.8.3-.5.3-1.4.3-1.4.6 0 1.1-.1 1.4-.5 1-1.3 1.2-3 2.2-4.4.9 0 1.3-.8 1.4-1.6.1-.8 0-1.7.5-2 .7-.3 1.7-.3 2.4-.9.7-.6 1-1.5 1.6-2.2h1.1c.8-.4 1.2-1.3 2-1.7h.4c.7.2 1.3-.3 1.9-.9l1-1.1h.7c1-.3 2.1-1 3.3-1.2.4.3.9.3 1.3.1 1.1-.4 2.1-1.1 3.2-1.7l2.3-.3Z" fill="#FEFCD7" fill-rule="evenodd" clip-rule="evenodd"/><path d="M170.7 32.6s-1.4-1-4.4 4.4c-3 5.5-9 14.4-9.6 15.2-.7.8 2.4-4.5 4-7.6 1.8-3 5-9 5-9s3.6-5.1-1-6.7c-4.6-1.6-7.6-4.2-11.9-2.8 0 0-2.8-2.4-7.9-2.4-5 0-6.5 1-5.8 4 1 4 3 8.4 3.7 11.5.7 3 3.3 11 3.3 11s-4.3-9.1-5.9-14.4c-1-3.5-2.3-10.2-5-11-2.6-1-8.3-2.4-12.5 2 0 0-11.6 2-8 6.4 3.5 4.5 23.1 19.7 23.1 19.7l-22.6-15.4s-5.8-5.5-9.2 0c-4.5 7.5-3.3 6.2-3.3 6.2s-2.1 4.6 5 7.5c7.3 3 25.5 8.3 25.5 8.3s-25.4-6.3-29.6-4.4c-3.3 1.5-4.6 3.2-1.5 10.3 3.2 7 1.8 9.2 6.2 9a252 252 0 0 0 24.6-6.2s-23.4 8.3-23.7 11c-.4 2.7 1.8 4 4 6.4 2 2.3 6.6 6.8 10.3 4.6 3.6-2.1 17.1-15.1 17.1-15.1l-14 15s-4.6 3-1.7 5.9c3 3 8.4 7.2 14 8.8 5.6 1.5 6.2-3.5 6.8-11.5.5-7.9 1.2-11.5 1.2-11.5s-.5 20.3.4 22.1c1 1.8 4.2 4.2 8.7 3.9 4.5-.3 4.8.8 8.5.1 3.6-.6 4.8-2.1 4.8-4 0-2-9.9-20.8-9.9-20.8s11.9 20.7 15.3 20.5c3.4 0 5.6-1.1 8-2.6 2.5-1.4 6.8-3.8 6.9-6.5.1-2.6-24.4-19.4-24.4-19.4l24 14.8s3.9 1.8 6.4-2c2.5-3.8 3-7.4 3.2-11 .2-3.7-32.6-10.5-32.6-10.5l31.4 4.7s3-2.4 1.3-8.6c-1.6-6.2-2.4-9.5-5.2-9.7-2.8 0-30.5 6.2-30.5 6.2l21.8-7.5s8.6-.9 4.7-6c-4-5-7.8-5.2-9.7-7.5-4.5-5.5-9.3-5.4-9.3-5.4Z" fill="#FDA106" fill-rule="evenodd" clip-rule="evenodd"/><mask id="b" width="100" height="86" x="100" y="23" maskUnits="userSpaceOnUse" style="mask-type:luminance"><path d="M170.7 32.6s-1.4-1-4.4 4.4c-3 5.5-9 14.4-9.6 15.2-.7.8 2.4-4.5 4-7.6 1.8-3 5-9 5-9s3.6-5.1-1-6.7c-4.6-1.6-7.6-4.2-11.9-2.8 0 0-2.8-2.4-7.9-2.4-5 0-6.5 1-5.8 4 1 4 3 8.4 3.7 11.5.7 3 3.3 11 3.3 11s-4.3-9.1-5.9-14.4c-1-3.5-2.3-10.2-5-11-2.6-1-8.3-2.4-12.5 2 0 0-11.6 2-8 6.4 3.5 4.5 23.1 19.7 23.1 19.7l-22.6-15.4s-5.8-5.5-9.2 0c-4.5 7.5-3.3 6.2-3.3 6.2s-2.1 4.6 5 7.5c7.3 3 25.5 8.3 25.5 8.3s-25.4-6.3-29.6-4.4c-3.3 1.5-4.6 3.2-1.5 10.3 3.2 7 1.8 9.2 6.2 9a252 252 0 0 0 24.6-6.2s-23.4 8.3-23.7 11c-.4 2.7 1.8 4 4 6.4 2 2.3 6.6 6.8 10.3 4.6 3.6-2.1 17.1-15.1 17.1-15.1l-14 15s-4.6 3-1.7 5.9c3 3 8.4 7.2 14 8.8 5.6 1.5 6.2-3.5 6.8-11.5.5-7.9 1.2-11.5 1.2-11.5s-.5 20.3.4 22.1c1 1.8 4.2 4.2 8.7 3.9 4.5-.3 4.8.8 8.5.1 3.6-.6 4.8-2.1 4.8-4 0-2-9.9-20.8-9.9-20.8s11.9 20.7 15.3 20.5c3.4 0 5.6-1.1 8-2.6 2.5-1.4 6.8-3.8 6.9-6.5.1-2.6-24.4-19.4-24.4-19.4l24 14.8s3.9 1.8 6.4-2c2.5-3.8 3-7.4 3.2-11 .2-3.7-32.6-10.5-32.6-10.5l31.4 4.7s3-2.4 1.3-8.6c-1.6-6.2-2.4-9.5-5.2-9.7-2.8 0-30.5 6.2-30.5 6.2l21.8-7.5s8.6-.9 4.7-6c-4-5-7.8-5.2-9.7-7.5-4.5-5.5-9.3-5.4-9.3-5.4Z" fill="#fff"/></mask><g mask="url(#b)"><path d="M146.6 51.7s4.5 7.7-8.1 1.8c0 0 8 5.3-3 7.1 0 0 8.4.6.2 6.8 0 0 12.9-2.9 6.6 7 0 0 5.6-9.7 5.5 3 0 0 3-11.3 8.4-1.3 0 0-3-7.7 5.6-3.7 0 0-8.7-6.5 0-6.7 0 0-8.5-2.3-1.5-6.3 0 0-10.3 3.6-5.2-5.5 0 0-5 5.8-8.5-2.2Z" fill="#FEFCD7" fill-rule="evenodd" clip-rule="evenodd"/></g><path d="M158.7 55s-.3-4.4 5.7-8.1c0 0-2 5.3-5.7 8.1Zm5.3 6.5s2.8-3.4 9.7-2c0 0-5.1 2.4-9.7 2Zm1.1 2.2s4-2 9.8 1.9c0 0-5.7.2-9.8-2Zm-3.5 4.1s4.2-1.3 9.2 3.8c0 0-5.7-.9-9.2-3.8ZM165 72s4.4-.3 8.2 5.6c0 0-5.4-2-8.2-5.6Zm-6.1 1.5s4.4.2 7.3 6.7c0 0-5-2.8-7.3-6.7Zm-1.2 1.8s4 1.7 4.8 8.8c0 0-3.9-4.3-4.8-8.8Zm-4.3-.5s3.8 2.3 3.4 9.3c0 0-3.1-4.7-3.4-9.3Zm-2.2.2s1.7 4.1-3 9.5c0 0 .4-5.7 3-9.5Zm1.8 3.3s2.4 3.7-1.2 9.9c0 0-.6-5.7 1.2-10Zm1.5 5s3.5 2.6 2.5 9.6c0 0-2.7-5.1-2.5-9.7Zm3 2.2s4.1 1.8 4.7 8.8c0 0-3.8-4.3-4.7-8.8Zm-7.2-1.1s2.3 3.8-1.3 9.9c0 0-.6-5.7 1.3-10Zm.7 8.6s2.3 3.8-1.3 9.9c0 0-.6-5.7 1.3-10Zm2.5-5.8s2.7 3.4-.2 10c0 0-1.3-5.7.2-10Zm2.3 6.2s2.7 3.4-.2 10c0 0-1.2-5.7.2-10Z" fill="#FBD104" fill-rule="evenodd" clip-rule="evenodd"/><path d="M158.4 98.6s2.7 2 .7 8c0 0-1.6-4.2-.7-8Zm-5.2-.4s2.2 2.5-.9 7.9c0 0-.7-4.4.9-8Zm-11.8-2.6s2.2 2.5-.9 8c0 0-.7-4.5.9-8Zm-5-3s.6 3.3-4.8 6.4c0 0 1.6-4.2 4.7-6.5Z" fill="#FBF204" fill-rule="evenodd" clip-rule="evenodd"/><path d="M158 91.5s3.8 2.4 3.3 9.4c0 0-3-4.8-3.2-9.4Z" fill="#FBD104" fill-rule="evenodd" clip-rule="evenodd"/><path d="M162.4 95.5s3.7 2.4 3.2 9.4c0 0-3-4.8-3.2-9.4Z" fill="#FBF204" fill-rule="evenodd" clip-rule="evenodd"/><path d="M162.8 79.5s4.3 1 6.3 7.7c0 0-4.6-3.4-6.3-7.7Zm11.6 7s4.3-1 9 4.2c0 0-5.6-1-9-4.1Z" fill="#FBD104" fill-rule="evenodd" clip-rule="evenodd"/><path d="M177.3 90.4s4.4.2 7.5 6.6c0 0-5.1-2.7-7.5-6.6Zm-.4 3s3.3 2 3.3 8c0 0-3-4-3.3-8Z" fill="#FBF204" fill-rule="evenodd" clip-rule="evenodd"/><path d="M167.2 80s4.4-.3 8.2 5.7c0 0-5.4-2.1-8.2-5.7Zm2.5 4.4s4.4.7 6.6 7.4c0 0-4.7-3.3-6.6-7.4ZM164 84s4 2 4 9.1c0 0-3.5-4.5-4-9.1Zm4.3 4.9s3.9 2 3.9 9.1c0 0-3.4-4.6-4-9.1Zm3.7 1.6s4 2 4 9.2c0 0-3.5-4.6-4-9.2Zm-1.6-21.3s4.2-1.4 9.3 3.5c0 0-5.7-.7-9.3-3.5ZM181.2 81s4.4 0 7.6 6.4c0 0-5.2-2.5-7.6-6.4Z" fill="#FBD104" fill-rule="evenodd" clip-rule="evenodd"/><path d="M182.6 79s4.4-.4 8.4 5.5c0 0-5.4-2-8.4-5.5Z" fill="#FBF204" fill-rule="evenodd" clip-rule="evenodd"/><path d="M171.8 72.9s4.3-1 9 4.4c0 0-5.7-1.2-9-4.4Zm8.5-1.3s4-1.6 9.4 3.1c0 0-5.7-.4-9.4-3.1Z" fill="#FBD104" fill-rule="evenodd" clip-rule="evenodd"/><path d="M187.2 76s4.4-.5 8.5 5.3c0 0-5.5-1.8-8.5-5.3Z" fill="#FBF204" fill-rule="evenodd" clip-rule="evenodd"/><path d="M180.1 74.7s4.4-.8 8.8 4.7c0 0-5.6-1.4-8.8-4.7Zm-6.3 1.4s4.4.3 7.2 6.8c0 0-5-2.9-7.2-6.8Zm-1.6-13.8s3.4-2.9 10-.3c0 0-5.6 1.6-10 .3Zm3.3-3.4s2.8-3.4 9.8-2c0 0-5.3 2.5-9.8 2Z" fill="#FBD104" fill-rule="evenodd" clip-rule="evenodd"/><path d="M183.2 60.2s3.4-2.8 10 0c0 0-5.6 1.3-10 0Z" fill="#FBF204" fill-rule="evenodd" clip-rule="evenodd"/><path d="M176.5 65s3.8-2.2 9.7 1.6c0 0-5.7.4-9.7-1.7Z" fill="#FBD104" fill-rule="evenodd" clip-rule="evenodd"/><path d="M184 63.2s3.9-2.1 9.8 1.8c0 0-5.7.3-9.8-1.8Z" fill="#FBF204" fill-rule="evenodd" clip-rule="evenodd"/><path d="M163.6 52.1s1.2-4.3 8.1-5.8c0 0-3.7 4.4-8 5.8Zm11.1-6.5s-.5-3.8 7-4.3c0 0-2.8 2.6-7 4.3ZM187 57.3s.6-3.9 7.8-2c0 0-3.3 1.5-7.8 2Zm.6 8.8s4.5-.9 8.9 3.4c0 0-6-.7-8.9-3.4Z" fill="#FBD104" fill-rule="evenodd" clip-rule="evenodd"/><path d="M170.8 45.2s0-3.9 6.4-6.2c0 0-2.6 4.3-6.4 6.2Z" fill="#FBF204" fill-rule="evenodd" clip-rule="evenodd"/><path d="M161.4 56s2.1-3.8 9.2-3.7c0 0-4.6 3.4-9.2 3.8Zm4.5-9.2s-.5-4.4 6-8.2c0 0-2.1 5.3-6 8.2Zm-13.6 6.3s-1.1-4.3 4.8-9c0 0-1.4 5.7-4.8 9Zm-2.9-1.2s-3.3-2.9-1.2-10.1c0 0 2.1 5.4 1.2 10.1Zm-4.4 0s-4.2-1.6-4.4-9.2c0 0 3.7 4.4 4.4 9.2Zm-3.3 0s-4.4.1-7.8-6.6c0 0 5.2 2.5 7.8 6.5Zm-5.7 13s-2.9 3.4-10.1 1.3c0 0 5.4-2.2 10-1.3Zm-1.8-2.7s-3.7 2.3-10-2c0 0 5.8-.3 10 2Zm7.8 8s-.8 4.3-8.1 6c0 0 3.5-4.5 8-6Zm3.8 4s2.4 3.7-1.7 10c0 0-.5-5.7 1.7-10Zm-2.2 1s.6 4.3-5.7 8.2c0 0 2-5.4 5.7-8.3Zm-1.7 7s.5 4.5-5.8 8.4c0 0 2-5.4 5.8-8.3Zm-1 6.8s1.2 4.3-4.5 9c0 0 1.3-5.6 4.6-9Zm-6.4 1s0 3.5-6.7 5.3c0 0 2.7-3.9 6.7-5.4Zm10.2-4.6s2.2 3.8-1.9 9.9c0 0-.4-5.8 1.9-10Zm-8-1.8s-.6 4.4-7.6 6.6c0 0 3.2-4.8 7.6-6.6Zm1.5-14.2s-2.2 3.9-9.7 3.2c0 0 4.9-3.2 9.7-3.2Zm-5.3 4.3s-1.6 4.1-9 4.5c0 0 4.2-3.8 9-4.5Z" fill="#FBD104" fill-rule="evenodd" clip-rule="evenodd"/><path d="M126.7 79.7s-1 4.3-8.5 5.7c0 0 3.9-4.3 8.5-5.7Zm-4.7-1.1s-2 3.9-9.6 3.3c0 0 4.8-3.2 9.6-3.3Z" fill="#FBF104" fill-rule="evenodd" clip-rule="evenodd"/><path d="M134.7 77.6s-1 4.3-8.4 5.7c0 0 3.8-4.3 8.4-5.7Zm-8.2-4.2s-2.2 3.9-9.7 3.1c0 0 4.9-3 9.7-3.1Zm-3.8-13.5s-3.8 2.4-10-2c0 0 5.7-.3 10 2Zm4.5 3s-3.5 2.8-10.2-.6c0 0 5.7-1.1 10.2.6Zm-.4 4.9s-2.6 3.6-10 2c0 0 5.2-2.5 10-2Z" fill="#FBD104" fill-rule="evenodd" clip-rule="evenodd"/><path d="M113.7 60.7s-3.5 2.8-10.2-.6c0 0 5.7-1.2 10.2.6Zm1.8 8.4s-2.3 3.8-9.8 2.6c0 0 5-2.8 9.8-2.6Z" fill="#FBF104" fill-rule="evenodd" clip-rule="evenodd"/><path d="M121.6 65.2s-2.5 3.5-10.4.4c0 0 5.3-1.8 10.4-.4Zm13-7.8s-3.4 1.7-8.4-2.8c0 0 5 .3 8.4 2.8Zm2.2-1.1s-3.8.2-6.6-6c0 0 4.4 2.2 6.6 6Zm-7.8-5.1s-3.8.2-6.5-6c0 0 4.4 2.3 6.5 6Zm-6.2 2.3s-3.3 1.9-8.5-2.4c0 0 5 0 8.5 2.4Zm3.4-1s-3.7.9-7.3-4.8c0 0 4.7 1.5 7.3 4.9Z" fill="#FBD104" fill-rule="evenodd" clip-rule="evenodd"/><path d="M119.3 45.2s-3.7.2-6.4-6c0 0 4.3 2.3 6.4 6Zm-2.1 4s-3.3 2-8.5-2.3c0 0 4.9 0 8.5 2.3Z" fill="#FBF104" fill-rule="evenodd" clip-rule="evenodd"/><path d="M140 47.4s-4.2-1.3-5-8.8c0 0 4 4 5 8.8Zm-.8-6.1s-3.8-2.5-2.5-10c0 0 2.8 5.1 2.5 10Zm-6.2 2.5s-4.3.8-8.6-5.4c0 0 5.5 1.7 8.6 5.4Zm.6-2s-4.4-.9-5.9-8.3c0 0 4.4 3.7 5.9 8.3Z" fill="#FBD104" fill-rule="evenodd" clip-rule="evenodd"/><path d="M134.2 37.4s-4-2-3.7-9.5c0 0 3.4 4.7 3.7 9.5Zm-7-.7s-3.8 1.2-7.8-4.9c0 0 4.8 1.4 7.7 4.9Z" fill="#FBF104" fill-rule="evenodd" clip-rule="evenodd"/><path d="M151.8 47.4s-2.2-3.8 2.1-10c0 0 .3 5.8-2 10Z" fill="#FBD104" fill-rule="evenodd" clip-rule="evenodd"/><path d="M156 37s-1-3.7 4.5-7.5c0 0-1.3 4.7-4.5 7.4Z" fill="#FBF104" fill-rule="evenodd" clip-rule="evenodd"/><path d="M155.1 43.9s-.8-4.3 5.9-8.3c0 0-1.9 5.3-5.9 8.3Zm-5-2.3s-3.5-2.9-1.4-10.1c0 0 2.2 5.3 1.3 10Z" fill="#FBD104" fill-rule="evenodd" clip-rule="evenodd"/><path d="M146.6 37.8s-3.6-2.5-2.3-9.9c0 0 2.7 5.1 2.3 10Z" fill="#FBF104" fill-rule="evenodd" clip-rule="evenodd"/><path d="M151.9 37.8s-2-4 2.9-9.8c0 0-.2 5.8-3 9.8Zm18.1 13s1.5-4.1 9-4.8c0 0-4.2 4-9 4.9Z" fill="#FBD104" fill-rule="evenodd" clip-rule="evenodd"/><path d="M175.2 51.1s2.5-3.6 10-2.2c0 0-5.2 2.6-10 2.2Z" fill="#FBF104" fill-rule="evenodd" clip-rule="evenodd"/><path d="m91.2 10.6.9-.2s1.8-1.2-3-3.5a56.7 56.7 0 0 0-38.6-4.2 57.2 57.2 0 0 0-37 27.4C5.8 42.5 7.2 46.6 4.1 51.6 1 56.6-.4 63.1.6 72c0 0-1-7.8 8.5-18.1a146 146 0 0 1 29.7-25.6c9.9-6.2 36.5-20.8 52.4-17.7Z" fill="#407C11" fill-rule="evenodd" clip-rule="evenodd"/><path d="M.1 72.4s1.5-9.3 6-12c4.5-2.9 37.5-18 46.7-25.2 9-7.2 29.8-19 40-23.6 6.3-3 12.2-1.4 13 2 0 0 1.7.1 1.3-1-.4-1-1.6-3.2-6-3.5-4.3-.4-9.1 1.2-9.1 1.2S73.2 7.8 50.5 20C31.4 30.3 1.6 54 .1 72.4Z" fill="#265A0F" fill-rule="evenodd" clip-rule="evenodd"/><path d="M87.3 10.2a10.8 10.8 0 0 0-2.6-3.5c2.6 1.5 4 2.8 4.9 3.7a32 32 0 0 0-2.3-.2Zm2.4.3a9 9 0 0 0-2-2.6 34.7 34.7 0 0 0 4 3l-2-.4Zm-9.1.1a48 48 0 0 0-17 3.5c-6.9 2.3-14.8 6.4-23.3 12-4.5-3.2-17.2-7.3-17.2-7.3a65 65 0 0 1 20 5.4c-4.8-3.2-17.4-7.4-17.4-7.4 6.6 0 16.9 4.1 20.4 5.6-4.9-3.2-17.4-7.5-17.4-7.5 6.6 0 16.9 4.2 20.4 5.7-5-3.2-18-7.4-18-7.4 6.5 0 17 4 20.7 5.6-5-3.2-17.8-7.5-17.8-7.5a71 71 0 0 1 21.4 6c-5-3.3-18.1-7.7-18.1-7.7 6.3 0 16.6 4.1 20.7 5.8-5.2-3.3-16.8-7.6-16.8-7.6 5.3.3 13.1 3.3 17.8 5.3-5.5-3.3-14.4-6.9-14.4-6.9A71 71 0 0 1 64 13c-4.8-3.7-16-8.3-16-8.3 6 .7 14.9 5 19 7a92.8 92.8 0 0 0-14.4-8.4 64 64 0 0 1 17.8 7.6C66 6.9 56.6 2 56.6 2a66.5 66.5 0 0 1 17.5 8.4 74 74 0 0 0-12.8-9A53.2 53.2 0 0 1 76.8 9c-3.7-3.9-9.5-7.5-9.5-7.5a39 39 0 0 1 13 7.3c-3-3.8-5.6-5.5-5.6-5.5 5.6 2.2 8 5 8.7 6-1.4-3-1.1-3.3-1.7-3.8a18 18 0 0 1 5.4 4.6c-3.2-.2-6.1 0-6.1 0l-.4.4ZM4 59.5c-1-.3-3-.2-3-.2l4-1.6c-1.5-.6-4 0-4 0 2.8-1.2 4.7-1.6 5.4-1.8-1.6-.6-4.2-.3-4.2-.3C5.7 54.2 7.7 54 8.5 54c-1.6-.8-5.5-.3-5.5-.3 3-1 6-1.9 7.1-2.1-2-.6-6.2 0-6.2 0a39 39 0 0 1 7.8-2c-3.9-.7-7.2-.2-7.2-.2 5.5-1.6 8-1.8 9.3-1.7-4.3-1.2-8.2-.7-8.2-.7 5.4-1.4 8.7-1.6 10.5-1.6-4-1-9.1-1.2-9.1-1.2 5.4-.8 8.8-1 10.8-1-4.1-1.6-9.4-2-9.4-2 5.4-.3 8.8-.2 10.9 0a53.3 53.3 0 0 0-9.5-2.6c7-.2 11 .5 12.7.8-4.8-2.7-12-3.3-12-3.3a76 76 0 0 1 13.2 1 51.5 51.5 0 0 0-12.6-3.5 51 51 0 0 1 15.8 2c-5-3.1-14.3-4.5-14.3-4.5a47 47 0 0 1 16.2 2.3c-4.8-3.2-14-5.3-14-5.3a53 53 0 0 1 16.3 3A69.4 69.4 0 0 0 17 25.6c6.2 0 13.7 2.8 17 4-4.7-3-15.3-6.3-15.3-6.3 6.6 0 15.5 3.4 18.5 4.7-4.4-3.2-16.2-7-16.2-7a60 60 0 0 1 19.3 5.2 155.3 155.3 0 0 0-27.5 23.4h-.2l-2.1 2-.7 1-4.6 5-1.2 2Z" fill="#4C9C06" fill-rule="evenodd" clip-rule="evenodd"/><path d="M86.6 10h1.3c0 1.1-.4 2-.6 4 0 0-.6-1.6-.7-4Zm-1.7-.2h1.5l-.9 5s-.5-1.8-.6-5Zm-2.3 0h2c-.4 1.8-1 3.8-1.3 6.4 0 0-.7-2.6-.7-6.4Zm-.2 0-1.2 7.7s-.8-3.4-.7-7.5l2-.2Zm-2 .2c-.5 2-1 5-1.2 8.6 0 0-1-3.8-.5-8.4l1.7-.2Zm-2 .2c-.7 2.2-1.4 5.3-1.6 9.5 0 0-1-4.2-.2-9.2l1.7-.3Zm-2 .3c-.7 2.3-1.5 5.8-1.7 10.6 0 0-1-5-.3-10.2a61 61 0 0 1 2-.4Zm-2.1.4c-.7 2.6-1.5 6.7-1.8 11.7 0 0-.6-6 0-11-.8 2.6-1.8 6.8-2.2 11.7 0 0-1-5.8 0-11.4l4-1Zm-4.1 1c-.7 3-1.6 8.2-1.9 13.7 0 0-1.1-7.2-.2-13a77 77 0 0 1 2-.7Zm-2.3.7c-.6 2.9-1.6 8.3-1.9 14 0 0-1.2-7.4-.2-13.3a83 83 0 0 1 2.1-.7Zm-2.3.7a88 88 0 0 0-1.8 14s-1.2-7.3-.3-13.2l2.1-.8Zm-2.3.9c-.6 2.8-1.6 8.4-2 14.3 0 0-1.1-7.6-.1-13.5l2.1-.8Zm-2.4 1c-.6 2.8-1.7 8.7-2 15 0 0-1.2-8-.2-14.2l2.2-.9Zm-2.3.9a100 100 0 0 0-2 15.3s-1.4-8.1-.2-14.3l2.2-1Zm-2.4 1A100 100 0 0 0 54 32.8s-1.3-8.3-.2-14.5l2.3-1Zm-2.4 1.2c-.6 2.5-1.9 8.9-2.2 15.8 0 0-1.3-8.4 0-14.7l2.2-1Zm-2.5 1.2c-.5 2.4-1.8 9-2.2 16 0 0-1.3-8.5 0-14.8l2.2-1.2ZM49 20.8c-.5 2.2-1.9 9-2.2 16.1 0 0-1.4-8.5 0-14.8l2.2-1.3Zm-2.3 1.3c-.5 2-2 8.9-2.3 16.3 0 0-1.4-8.7 0-15l2.3-1.3ZM44 23.7a94 94 0 0 0-2.2 16.1s-1.3-8.5 0-14.7l2.2-1.4Zm-2.5 1.5c-.4 2.1-1.8 8.9-2.2 16.1 0 0-1.3-8.4 0-14.6a57 57 0 0 1 2.2-1.5ZM39 26.7c-.5 2.3-1.8 9-2.2 16 0 0-1.3-8-.1-14.3l2.3-1.7Zm-2.3 1.7c-.6 2.4-2 9-2.2 16 0 0-1-6.4-.5-12.1-.6 3.4-1.5 8.9-1.7 13 0 0-1-8 .1-13.7l4.3-3.2Zm-4.3 3.2c-.6 2.7-2 9.6-2.1 14.9 0 0-1-6.8 0-12.4-.7 3-1.8 8.5-2 13 0 0-.8-6.1.2-11.6-.7 3-1.9 8.3-2 13 0 0-1.2-6.5 0-12.1l6-4.8Zm-5.8 4.8a73 73 0 0 0-2 13.1s-1.1-6 .1-11.6l1.9-1.5ZM24.7 38c-.6 2.5-2 8.6-2 12.3 0 0-1.2-4.6-.1-9.7A48 48 0 0 0 21 51.4s-1.5-4.7-.2-10a190 190 0 0 1 3.8-3.4Zm-3.9 3.4c-.5 2-1.5 6.3-1.6 10.6 0 0-1.6-3.6-.2-8.9l1.8-1.7Zm-2 1.8c-.5 2-1.5 5.8-1.7 10 0 0-1-3.3 0-8.3l1.8-1.7ZM17 45.1c-.7 2-1.8 6-2 9.5 0 0-1-2.8.2-7.8L17 45Zm-1.8 1.7c-.6 2-1.8 6.1-1.9 9.6 0 0-1.2-2.8.1-7.8l1.8-1.8Zm-2 2c-.4 1.4-.8 3-1.6 7.8 0 0-1.2-1.4 0-6l1.7-1.8Zm-1.7 1.9c-.4 1.4-1 3.7-1.5 6.8 0 0-.9-1.7-.2-4.9l1.7-2Zm-2 2.2c-.4 1.3-.9 3-1.2 5.3 0 0-.5-1.6-.2-3.5l1.5-1.8Zm-1.6 2-1 4.1-.3-2.4L8 54.9Zm-1.4 1.8-.7 2.7s-.4-.4-.6-1l1.3-1.7Zm83.1-46.4s-1 1.5-1.2 2.8c0 0-.3-1.6-.3-3l1.5.2Z" fill="#417A0F" fill-rule="evenodd" clip-rule="evenodd"/><path d="M110.5 8.7s-4.2 4.3-5.8 6.5c-1.5 2.2-2.2 2.8-2.5 3.4-.3.5-.5.2.8 1 1.4.7 1.3-.2 2.1.8.9 1 1.4 2.4 1.7.8.3-1.7.1-1.4 1-3 .8-1.6.7-1.6 2-3 1.2-1.3 1-1.2 2.4-2.5l1.7-1.5s-2.7-.9-3.4-2.5Z" fill="#407C11" fill-rule="evenodd" clip-rule="evenodd"/><path d="m103.3 19.7-.3-.1c-1.3-.8-1-.5-.8-1 .3-.6 1-1.2 2.5-3.4 1.6-2.2 5.8-6.5 5.8-6.5.2.4.5.8.9 1.1l-2.6 2.8c-2 2.2-1.6 1.8-3 3.8l-2.2 3-.3.3Z" fill="#265A0F" fill-rule="evenodd" clip-rule="evenodd"/><path d="M100.9 17.8c-.1-.3-.2 1.2-.8 1-.6-.3 0-.8-.9-.9-.8 0-1.9.3-1.1.8.8.5 1.2.2 1.2 1.1 0 1-.6 1.7.3 1.7.8 0 .7.1 1 .7.4.7-.4 1 .7.7 1.2-.2 1.3-.4 1.6 0 .2.5.6.7 1 .4.6-.3.7-.3 1.1 0 .5.3 1.8.7 1.2-.2-.5-.9-.6-.5-.7-1.6-.1-1 .9-1-1-1.2-1.9-.2-2 .1-2.4-.6-.4-.8-1.1-1.4-1.2-1.9Z" fill="#265A0F" fill-rule="evenodd" clip-rule="evenodd"/><path d="m103 18.4-1 .2c-.7 0-.8-.8-.7.5 0 1.4-.5 1.7.2 1.8.8 0-.6 0 1.1.3 1.7.3 1.9-.3 2.2.5.3.8.2 1 .7 1.2.4.3.1.7.9.5.7 0 1.2 0 1-.4l-.7-1.3c-.4-.7-.2-1-.8-1.5-.7-.5-1-.7-1.4-.7-.5 0-.6 0-.9-.2l-.6-1Z" fill="#407C11" fill-rule="evenodd" clip-rule="evenodd"/></g><defs><clipPath id="a"><path d="M0 0h207v132H0z" fill="#fff"/></clipPath></defs></svg>